<svg xmlns="http://www.w3.org/2000/svg" width="100" height="150" viewBox="0 0 100 150"><rect width="100%" height="100%" fill="#DDDDDD"/><path fill="#999999" d="M27.785 76.565q.16 0 .29.13l.8.86q-.66.82-1.63 1.25-.96.44-2.31.44-1.21 0-2.17-.41t-1.65-1.15q-.68-.73-1.04-1.75-.37-1.02-.37-2.23 0-1.22.39-2.24t1.1-1.75q.71-.74 1.69-1.15.99-.4 2.18-.4 1.18 0 2.1.39.92.38 1.57 1.02l-.68.93q-.06.09-.15.16-.1.07-.26.07-.12 0-.23-.07-.13-.06-.27-.15-.14-.1-.33-.21t-.43-.21q-.25-.09-.58-.15-.32-.07-.75-.07-.73 0-1.33.26-.61.26-1.04.75t-.68 1.2q-.24.71-.24 1.62t.26 1.63q.26.71.71 1.2.44.48 1.04.74t1.29.26q.41 0 .74-.05.34-.04.62-.14t.53-.25.5-.38q.07-.07.16-.11.08-.04.17-.04m6.25.57v-1.29q-.8.03-1.35.13-.55.11-.88.26-.33.16-.47.37-.15.21-.15.46 0 .49.29.7.29.2.76.2.57 0 .98-.2.42-.21.82-.63m-3.92-4.04-.33-.59q1.33-1.22 3.2-1.22.67 0 1.2.22.54.23.9.62.37.39.56.94t.19 1.2v4.86h-.84q-.26 0-.4-.08t-.23-.32l-.16-.55q-.29.26-.57.46t-.58.33q-.3.14-.64.21t-.75.07q-.49 0-.9-.13-.42-.13-.72-.39-.29-.27-.46-.66t-.17-.9q0-.3.1-.59.1-.28.32-.55.22-.26.58-.49.35-.23.86-.41.51-.17 1.2-.28.68-.11 1.56-.13v-.45q0-.77-.33-1.14-.33-.38-.96-.38-.45 0-.74.11-.3.1-.52.24l-.41.23q-.19.11-.41.11-.2 0-.33-.1-.14-.1-.22-.24m10.03 6.15q-1.01 0-1.54-.57-.54-.56-.54-1.56v-4.3h-.79q-.15 0-.25-.09-.1-.1-.1-.3v-.73l1.23-.2.39-2.1q.04-.15.14-.24.11-.08.27-.08h.96v2.42h2.06v1.32h-2.06v4.17q0 .36.18.57.18.2.48.2.18 0 .29-.04.12-.04.21-.09.08-.04.15-.09.07-.04.13-.04.09 0 .14.04.05.05.11.13l.56.9q-.41.34-.93.51-.53.17-1.09.17m4.48-4.85h3.49q0-.36-.1-.68t-.3-.56q-.21-.24-.52-.38t-.72-.14q-.8 0-1.26.46-.47.46-.59 1.3m4.72 1.12h-4.76q.04.59.21 1.02.16.43.43.71t.65.42q.37.14.82.14t.77-.11q.33-.1.57-.23.25-.12.43-.23.18-.1.36-.1.23 0 .34.17l.53.67q-.3.36-.69.61-.38.24-.79.39-.42.14-.85.2t-.84.06q-.8 0-1.49-.26-.69-.27-1.2-.79t-.8-1.29q-.3-.77-.3-1.78 0-.79.26-1.48.25-.7.73-1.21t1.16-.81q.69-.3 1.55-.3.73 0 1.34.23.62.23 1.06.68.44.44.7 1.09.25.65.25 1.48 0 .42-.09.57t-.35.15m4.64-.43q.34 0 .6-.09.25-.09.42-.26.17-.16.26-.4.08-.23.08-.5 0-.58-.34-.91t-1.02-.33q-.69 0-1.03.33t-.34.91q0 .27.09.5.08.23.25.4t.43.26.6.09m2.09 4.38q0-.22-.14-.36-.13-.14-.36-.22-.24-.08-.55-.12t-.66-.06q-.35-.01-.72-.03-.37-.01-.72-.06-.31.17-.5.41-.19.23-.19.53 0 .21.1.38.1.18.32.31.22.12.58.2.35.07.86.07.52 0 .89-.08.38-.08.62-.22t.36-.33q.11-.19.11-.42m-.37-7.77h2.21v.69q0 .33-.39.4l-.69.13q.15.4.15.87 0 .57-.22 1.03-.23.46-.64.79-.4.32-.95.49-.56.18-1.19.18-.23 0-.44-.02l-.41-.06q-.36.22-.36.49 0 .23.21.34.22.11.57.15t.8.06q.45.01.92.05.48.03.93.13.45.09.8.29.35.21.57.55.21.35.21.9 0 .51-.25.99t-.73.86q-.48.37-1.17.6t-1.58.23q-.87 0-1.51-.17-.65-.17-1.08-.45-.42-.28-.63-.65t-.21-.77q0-.53.32-.9.33-.36.9-.58-.31-.16-.49-.42t-.18-.69q0-.17.07-.36.06-.18.18-.36.13-.18.31-.34.19-.16.45-.29-.59-.31-.92-.84-.34-.52-.34-1.23 0-.57.23-1.03t.64-.79q.41-.32.97-.5.56-.17 1.22-.17.49 0 .93.1.43.1.79.3m6.79-.38q.85 0 1.56.27.7.28 1.2.79.49.51.76 1.25.27.73.27 1.64t-.27 1.65q-.27.73-.76 1.25-.5.52-1.2.8-.71.27-1.56.27-.86 0-1.57-.27-.7-.28-1.2-.8t-.77-1.25q-.28-.74-.28-1.65t.28-1.64q.27-.74.77-1.25t1.2-.79q.71-.27 1.57-.27m0 6.5q.96 0 1.42-.65.46-.64.46-1.89 0-1.24-.46-1.9-.46-.65-1.42-.65-.98 0-1.44.66-.47.66-.47 1.89 0 1.24.47 1.89.46.65 1.44.65m6.85-5.92.11.87q.36-.69.85-1.08.5-.4 1.18-.4.53 0 .85.24l-.12 1.38q-.04.14-.11.19-.07.06-.19.06-.11 0-.33-.04-.23-.03-.43-.03-.31 0-.55.08-.24.09-.43.26t-.34.41-.28.55v4.74h-1.85v-7.69h1.09q.29 0 .4.1t.15.36m9.46-.46h1.49l-4.2 9.8q-.08.2-.21.3t-.4.1h-1.38l1.44-3.09-3.11-7.11h1.62q.22 0 .35.1.12.11.18.24l1.63 3.99q.09.2.14.4.06.21.11.42l.14-.42q.06-.21.15-.41l1.54-3.98q.06-.15.2-.25.14-.09.31-.09"/></svg>