<svg xmlns="http://www.w3.org/2000/svg" width="100" height="100" viewBox="0 0 100 100"><rect width="100%" height="100%" fill="#DDDDDD"/><path fill="#999999" d="m26.84 45.47-.47.89q-.09.15-.18.21-.1.07-.24.07t-.31-.11q-.18-.11-.41-.24-.24-.13-.56-.24t-.75-.11q-.39 0-.69.09-.29.1-.49.27-.2.16-.3.4-.1.23-.1.51 0 .36.2.6t.53.4q.33.17.75.3.42.14.86.29t.86.35.75.5q.33.31.53.75t.2 1.07q0 .69-.24 1.28-.23.6-.68 1.05-.45.44-1.1.7-.66.25-1.5.25-.48 0-.95-.09-.47-.1-.9-.27-.43-.18-.81-.42-.37-.25-.67-.55l.56-.9q.07-.1.18-.17.11-.06.23-.06.18 0 .38.14.21.15.49.32t.65.32q.37.14.9.14.81 0 1.25-.38t.44-1.1q0-.39-.2-.65-.2-.25-.53-.42t-.75-.29-.85-.26q-.44-.14-.86-.34-.42-.19-.75-.51-.33-.31-.53-.78-.19-.48-.19-1.17 0-.55.22-1.08.22-.52.64-.93.42-.4 1.03-.65.62-.24 1.42-.24.89 0 1.65.28.75.28 1.29.78m5.34 7.32v-1.22q-.75.04-1.26.13-.51.1-.82.25-.31.14-.44.34-.14.19-.14.42 0 .46.27.66.27.19.71.19.53 0 .92-.19t.76-.58m-3.66-3.78-.31-.55q1.24-1.14 2.99-1.14.63 0 1.12.21.5.21.84.58.35.36.53.87.17.51.17 1.12v4.54h-.78q-.24 0-.38-.07-.13-.08-.21-.3l-.15-.52q-.27.25-.53.43-.26.19-.54.31-.28.13-.6.2-.32.06-.71.06-.45 0-.84-.12-.38-.12-.66-.37-.28-.24-.43-.61-.16-.36-.16-.84 0-.28.09-.55t.3-.51q.21-.25.54-.46.32-.22.8-.38t1.12-.26 1.46-.13v-.42q0-.72-.31-1.06-.31-.35-.89-.35-.42 0-.7.1-.27.1-.48.22t-.38.22q-.18.1-.39.1-.18 0-.3-.1-.13-.09-.21-.22m1.3-4.02-.31-.46q.11-.08.27-.16.16-.07.36-.12.19-.05.41-.07.21-.03.44-.03.72 0 1.07.27t.35.69q0 .37-.25.65-.24.28-.61.44l-.15.6h-.83v-1.05q.37-.05.49-.17.13-.13.13-.28 0-.14-.1-.24t-.33-.1q-.12 0-.23.03-.1.02-.19.06t-.16.06q-.07.03-.13.03-.08 0-.13-.04t-.1-.11m7.17 2.78.11.57q.22-.22.46-.4.24-.19.51-.32t.58-.2.67-.07q.59 0 1.05.2.45.19.76.56.3.36.46.86t.16 1.1v4.57h-1.73v-4.57q0-.66-.3-1.02-.31-.36-.92-.36-.45 0-.84.2-.39.21-.74.56v5.19h-1.73v-7.18h1.05q.34 0 .45.31m11.53 1.79v3.22q.29.35.64.5.34.15.75.15.39 0 .7-.15.32-.15.54-.45t.34-.76q.12-.45.12-1.08t-.1-1.06q-.1-.44-.29-.71-.19-.28-.46-.4-.27-.13-.61-.13-.54 0-.92.23-.38.22-.71.64m-.24-1.79.14.67q.45-.5 1-.81.56-.31 1.32-.31.59 0 1.08.25.48.24.84.71.35.47.54 1.15t.19 1.56q0 .81-.21 1.49-.22.69-.62 1.19-.41.51-.98.79t-1.27.28q-.6 0-1.03-.18-.43-.19-.76-.51v2.94h-1.73v-9.53h1.05q.34 0 .44.31m8.19-3.53v3.99q.42-.39.92-.64.51-.24 1.18-.24.59 0 1.05.2.45.19.76.56.3.36.46.86t.16 1.1v4.57h-1.73v-4.57q0-.66-.3-1.02-.31-.36-.92-.36-.45 0-.84.2-.39.21-.74.56v5.19h-1.73v-10.4zm9.96 8.55v-1.22q-.75.04-1.26.13-.51.1-.82.25-.31.14-.44.34-.13.19-.13.42 0 .46.26.66.27.19.71.19.53 0 .92-.19t.76-.58m-3.66-3.78-.3-.55q1.24-1.14 2.98-1.14.63 0 1.12.21.5.21.85.58.34.36.52.87t.18 1.12v4.54h-.79q-.24 0-.38-.07-.13-.08-.21-.3l-.15-.52q-.27.25-.53.43-.26.19-.54.31-.28.13-.6.2-.32.06-.7.06-.46 0-.84-.12-.39-.12-.67-.37-.28-.24-.43-.61-.16-.36-.16-.84 0-.28.09-.55.1-.27.3-.51.21-.25.54-.46.33-.22.81-.38t1.11-.26q.64-.1 1.46-.13v-.42q0-.72-.31-1.06-.31-.35-.89-.35-.42 0-.7.1-.27.1-.48.22t-.38.22-.38.1q-.19 0-.31-.1-.13-.09-.21-.22m3.34-4.49 1.6 1.94h-1.16q-.18 0-.35-.12l-.73-.78q-.08-.07-.15-.17-.07.1-.14.17l-.75.78q-.06.05-.15.09-.1.03-.2.03h-1.2l1.6-1.94zm.68-.67-.31-.45q.22-.18.52-.28.3-.11.67-.11.28 0 .52.07t.42.2q.17.13.27.33.1.21.1.47 0 .37-.25.64-.25.28-.64.42l-.11.29h-.67v-.81q.36-.05.55-.18.18-.13.18-.29 0-.14-.11-.23t-.31-.09q-.1 0-.18.02-.09.03-.16.07l-.14.06q-.06.03-.12.03-.09 0-.13-.05-.05-.04-.1-.11m4.68 10.79h-1.73v-7.18h1.06q.33 0 .44.31l.11.54q.19-.21.39-.39.21-.18.45-.3.23-.13.5-.2t.59-.07q.68 0 1.12.36.44.37.65.98.17-.36.42-.61.25-.26.56-.42.3-.16.64-.24.34-.07.68-.07.59 0 1.06.18.46.18.77.53.32.35.48.85.17.51.17 1.16v4.57H78.1v-4.57q0-.69-.3-1.03-.3-.35-.89-.35-.26 0-.49.09t-.4.26q-.17.18-.27.43-.1.26-.1.6v4.57h-1.73v-4.57q0-.72-.29-1.05t-.85-.33q-.38 0-.71.19-.32.18-.6.5z"/></svg>