<svg xmlns="http://www.w3.org/2000/svg" width="100" height="100" viewBox="0 0 100 100"><rect width="100%" height="100%" fill="#DDDDDD"/><path fill="#999999" d="M23.665 51.775h4.83l-1.85-5.05q-.14-.34-.29-.8-.14-.46-.29-1-.14.54-.28 1-.15.47-.29.82zm3.85-9.45 5.96 15.18h-2.18q-.37 0-.6-.18-.23-.19-.35-.46l-1.13-3.1h-6.29l-1.13 3.1q-.09.24-.33.44t-.6.2h-2.2l5.97-15.18zm14.79 4.41h2.05l-4.27 10.77h-2.35l-4.28-10.77h2.14q.3 0 .49.13.2.14.26.35l2.08 5.75q.17.51.29.99.13.48.22.97.11-.49.23-.97.13-.48.31-.99l2.12-5.75q.07-.21.26-.35.19-.13.45-.13m9.12 7.99v-1.82q-1.13.05-1.89.2-.77.14-1.23.36t-.66.51q-.2.3-.2.64 0 .68.4.98.41.29 1.06.29.8 0 1.38-.29.58-.28 1.14-.87m-5.48-5.66-.46-.83q1.85-1.7 4.47-1.7.94 0 1.69.31.74.31 1.26.86.51.55.78 1.32.27.76.27 1.68v6.8h-1.18q-.36 0-.56-.11t-.32-.45l-.23-.77q-.41.36-.8.64t-.81.47-.89.29q-.48.1-1.06.1-.68 0-1.26-.19-.58-.18-1-.55-.42-.36-.65-.91t-.23-1.27q0-.41.14-.81.13-.41.44-.78.31-.36.81-.69.49-.33 1.21-.57t1.67-.39q.96-.15 2.19-.18v-.63q0-1.09-.46-1.61-.47-.52-1.34-.52-.63 0-1.04.15-.42.15-.73.33-.32.19-.57.33-.26.15-.58.15-.27 0-.46-.14t-.3-.33m14.04 8.61q-1.41 0-2.16-.79-.75-.8-.75-2.19v-6.02h-1.11q-.21 0-.35-.14-.15-.13-.15-.41v-1.03l1.73-.28.55-2.94q.05-.21.2-.32.15-.12.38-.12h1.34v3.39h2.88v1.85h-2.88v5.84q0 .5.25.78.24.29.67.29.25 0 .41-.06t.28-.12.22-.12q.09-.06.19-.06.11 0 .19.06.07.06.15.17l.78 1.26q-.57.47-1.3.72-.74.24-1.52.24m9.91-2.95v-1.82q-1.13.05-1.89.2-.77.14-1.23.36t-.66.51q-.2.3-.2.64 0 .68.4.98.41.29 1.06.29.8 0 1.38-.29.58-.28 1.14-.87m-5.48-5.66-.47-.83q1.86-1.7 4.48-1.7.94 0 1.69.31.74.31 1.26.86.51.55.78 1.32.27.76.27 1.68v6.8h-1.18q-.37 0-.56-.11-.2-.11-.32-.45l-.23-.77q-.41.36-.8.64t-.81.47-.89.29q-.48.1-1.06.1-.68 0-1.26-.19-.58-.18-1-.55-.42-.36-.65-.91t-.23-1.27q0-.41.14-.81.13-.41.44-.78.31-.36.81-.69.49-.33 1.21-.57t1.67-.39q.96-.15 2.19-.18v-.63q0-1.09-.46-1.61-.47-.52-1.34-.52-.63 0-1.04.15-.42.15-.73.33-.32.19-.57.33-.26.15-.58.15-.27 0-.46-.14t-.3-.33m12.73-1.68.16 1.22q.5-.97 1.2-1.52.69-.55 1.64-.55.74 0 1.19.32l-.17 1.95q-.05.18-.15.26t-.27.08q-.15 0-.46-.05t-.61-.05q-.43 0-.76.12-.34.13-.61.37-.26.23-.47.57-.2.33-.38.76v6.64h-2.6v-10.77h1.53q.4 0 .55.14.16.14.21.51"/></svg>