<svg xmlns="http://www.w3.org/2000/svg" width="1290" height="400" viewBox="0 0 1290 400"><rect width="100%" height="100%" fill="#DDDDDD"/><path fill="#999999" d="M294.945 249.5h26.25q7.23 0 12.16-1.73 4.92-1.74 7.86-4.63 2.94-2.9 4.25-6.76 1.3-3.86 1.3-8.2 0-4.54-1.45-8.16-1.45-3.61-4.53-6.17-3.09-2.56-7.96-3.91-4.88-1.35-11.73-1.35h-26.15zm22.1-99.2h-22.1v40.34h20.65q13.32 0 20.12-4.82 6.8-4.83 6.8-15.35 0-10.9-6.17-15.54-6.18-4.63-19.3-4.63m-48.06-20.07h48.06q13.7 0 23.45 2.61 9.74 2.6 15.97 7.43 6.22 4.82 9.12 11.67 2.89 6.85 2.89 15.44 0 4.92-1.45 9.41-1.44 4.49-4.48 8.4t-7.72 7.09-11.15 5.4q28.76 6.47 28.76 31.08 0 8.88-3.38 16.4-3.38 7.53-9.84 12.98-6.47 5.45-15.92 8.54-9.46 3.09-21.62 3.09h-52.69zm175.63 113.97v-16.7q-10.33.49-17.37 1.79t-11.29 3.33q-4.25 2.02-6.08 4.73-1.83 2.7-1.83 5.88 0 6.27 3.71 8.98 3.72 2.7 9.7 2.7 7.33 0 12.69-2.65 5.36-2.66 10.47-8.06m-50.37-52.02-4.25-7.62q17.08-15.63 41.11-15.63 8.69 0 15.54 2.84 6.85 2.85 11.58 7.92 4.73 5.06 7.19 12.11 2.46 7.04 2.46 15.44v62.53h-10.81q-3.38 0-5.21-1.01-1.84-1.02-2.9-4.1l-2.12-7.15q-3.76 3.38-7.33 5.94t-7.43 4.29q-3.86 1.74-8.26 2.66-4.39.91-9.69.91-6.28 0-11.58-1.68-5.31-1.69-9.17-5.07t-5.98-8.4q-2.13-5.01-2.13-11.67 0-3.77 1.26-7.48 1.25-3.72 4.1-7.09 2.85-3.38 7.38-6.37 4.54-3 11.15-5.21 6.61-2.22 15.39-3.62t20.07-1.69v-5.79q0-9.94-4.25-14.72-4.24-4.78-12.25-4.78-5.79 0-9.6 1.36-3.81 1.35-6.71 3.04-2.89 1.68-5.26 3.04-2.36 1.35-5.26 1.35-2.51 0-4.24-1.31-1.74-1.3-2.8-3.04m116.67-17.08 1.64 7.82q2.99-2.99 6.32-5.55t7.04-4.34q3.72-1.79 7.96-2.8 4.25-1.01 9.27-1.01 8.1 0 14.38 2.75 6.27 2.75 10.47 7.72 4.19 4.97 6.36 11.87 2.18 6.9 2.18 15.2v63.01h-23.84v-63.01q0-9.08-4.15-14.05t-12.64-4.97q-6.18 0-11.58 2.8t-10.23 7.63v71.6h-23.84v-99.01h14.58q4.63 0 6.08 4.34m108.85 0 1.64 7.82q2.99-2.99 6.32-5.55t7.04-4.34q3.72-1.79 7.96-2.8 4.25-1.01 9.27-1.01 8.1 0 14.38 2.75 6.27 2.75 10.47 7.72t6.37 11.87 2.17 15.2v63.01h-23.84v-63.01q0-9.08-4.15-14.05t-12.64-4.97q-6.17 0-11.58 2.8-5.4 2.8-10.23 7.63v71.6h-23.83v-99.01h14.57q4.63 0 6.08 4.34m107.02 33.78h44.97q0-4.63-1.31-8.73-1.3-4.11-3.91-7.19-2.6-3.09-6.61-4.88-4-1.78-9.31-1.78-10.32 0-16.26 5.88-5.93 5.89-7.57 16.7m60.79 14.38h-61.28q.58 7.62 2.71 13.17 2.12 5.55 5.59 9.17 3.48 3.62 8.25 5.4 4.78 1.79 10.57 1.79t9.99-1.36q4.2-1.35 7.33-2.99 3.14-1.64 5.5-2.99 2.37-1.35 4.59-1.35 2.99 0 4.44 2.22l6.85 8.69q-3.96 4.63-8.88 7.76-4.92 3.14-10.28 5.02-5.35 1.88-10.9 2.66-5.55.77-10.76.77-10.33 0-19.21-3.43-8.87-3.42-15.44-10.13-6.56-6.71-10.32-16.6-3.77-9.89-3.77-22.92 0-10.13 3.29-19.06 3.28-8.92 9.4-15.53 6.13-6.61 14.96-10.47t19.93-3.86q9.36 0 17.27 2.99 7.92 2.99 13.61 8.73t8.93 14.09q3.23 8.35 3.23 19.06 0 5.4-1.16 7.29-1.16 1.88-4.44 1.88m44.49-46.52 1.45 11.2q4.63-8.88 11-13.95 6.37-5.06 15.05-5.06 6.85 0 11 2.99l-1.54 17.85q-.48 1.74-1.4 2.46-.92.73-2.46.73-1.45 0-4.3-.49-2.84-.48-5.55-.48-3.95 0-7.04 1.16t-5.55 3.33-4.34 5.26-3.52 7.04v60.99h-23.84v-99.01h13.99q3.67 0 5.12 1.3 1.45 1.31 1.93 4.68m109.04-5.4-12.54-2.22q1.45-10.04 5.59-17.61 4.15-7.58 10.38-12.64 6.22-5.07 14.28-7.63 8.06-2.55 17.32-2.55 9.65 0 17.42 2.75t13.27 7.62 8.44 11.44q2.95 6.56 2.95 14.18 0 6.66-1.5 11.73-1.5 5.06-4.29 8.83-2.8 3.76-6.95 6.36-4.15 2.61-9.36 4.35 12.54 3.95 18.72 12.06t6.18 20.36q0 10.42-3.87 18.43-3.86 8.01-10.42 13.46-6.56 5.46-15.2 8.26-8.63 2.79-18.28 2.79-10.52 0-18.34-2.41-7.81-2.41-13.6-7.14t-9.85-11.58q-4.05-6.85-6.94-15.83l10.51-4.34q4.15-1.74 7.77-.91 3.62.82 5.26 3.9 1.74 3.38 3.81 6.66 2.08 3.28 4.97 5.84 2.9 2.56 6.81 4.15 3.9 1.59 9.31 1.59 6.08 0 10.61-1.98 4.54-1.97 7.58-5.16 3.04-3.18 4.53-7.09 1.5-3.91 1.5-7.87 0-5.01-1.06-9.12-1.06-4.1-4.44-6.99-3.38-2.9-9.7-4.54t-16.94-1.64v-16.98q8.79-.1 14.58-1.64 5.79-1.55 9.21-4.3 3.43-2.75 4.78-6.61t1.35-8.49q0-9.84-5.5-14.96-5.5-5.11-14.67-5.11-4.24 0-7.82 1.21-3.57 1.2-6.41 3.37-2.85 2.17-4.78 5.07-1.93 2.89-2.89 6.37-1.64 4.44-4.3 5.88-2.65 1.45-7.48.68"/></svg>