<svg xmlns="http://www.w3.org/2000/svg" width="150" height="200" viewBox="0 0 150 200"><rect width="100%" height="100%" fill="#DDDDDD"/><path fill="#999999" d="M38.03 106.585h8.05L43 98.175q-.23-.56-.47-1.33-.25-.77-.49-1.67-.23.9-.47 1.68-.25.77-.48 1.35zm6.42-15.75 9.94 25.31h-3.64q-.61 0-.99-.31-.39-.3-.58-.76l-1.89-5.16H36.81l-1.89 5.16q-.14.4-.55.74-.4.33-.99.33H29.7l9.96-25.31zm-5.47-4.88-.81-1.14q.56-.42 1.58-.69 1.03-.27 2.17-.27 1.8 0 2.75.67.96.66.96 1.71 0 .47-.19.84-.18.37-.5.66-.31.29-.74.49t-.92.34l-.3.91h-2.06v-1.94q.91-.13 1.29-.36.39-.24.39-.54 0-.33-.34-.54t-.9-.21q-.34 0-.61.07t-.49.17q-.22.09-.4.16t-.34.07q-.19 0-.31-.1-.11-.11-.23-.3m21.1 13.02.3 1.42q.54-.54 1.15-1.01.6-.46 1.27-.78.68-.33 1.45-.51.77-.19 1.68-.19 1.47 0 2.6.5 1.14.5 1.9 1.4t1.16 2.16q.39 1.25.39 2.75v11.43h-4.32v-11.43q0-1.64-.75-2.54-.76-.91-2.3-.91-1.12 0-2.1.51t-1.85 1.38v12.99h-4.32v-17.96h2.64q.84 0 1.1.79m20.32-8.84v9.98q1.05-.98 2.31-1.59 1.26-.62 2.96-.62 1.47 0 2.6.5 1.14.5 1.9 1.4t1.16 2.16q.39 1.25.39 2.75v11.43H87.4v-11.43q0-1.64-.75-2.54-.76-.91-2.3-.91-1.12 0-2.1.51t-1.85 1.38v12.99h-4.32v-26.01zm35.35 22.77h4.55v3.24h-14v-3.24h5.13v-14.75q0-.88.05-1.8l-3.64 3.04q-.32.25-.62.31-.31.06-.58.01-.27-.06-.48-.19t-.32-.29l-1.36-1.87 7.72-6.56h3.55z"/></svg>