<svg xmlns="http://www.w3.org/2000/svg" width="200" height="300" viewBox="0 0 200 300"><rect width="100%" height="100%" fill="#DDDDDD"/><path fill="#999999" d="m53.675 140.94-.94 1.78q-.16.29-.35.42-.19.14-.47.14-.3 0-.64-.22t-.82-.48q-.47-.27-1.11-.48-.64-.22-1.51-.22-.78 0-1.37.19t-.98.52q-.4.34-.6.81t-.2 1.03q0 .71.4 1.19.4.47 1.06.81.66.33 1.5.6t1.72.57 1.72.7 1.5 1.01q.66.6 1.06 1.49.4.88.4 2.14 0 1.37-.47 2.57-.47 1.19-1.38 2.08-.9.89-2.2 1.4t-2.98.51q-.97 0-1.91-.18-.93-.19-1.8-.54-.86-.35-1.61-.84-.76-.49-1.35-1.1l1.11-1.8q.14-.2.36-.33.23-.13.48-.13.35 0 .76.28.4.29.96.64t1.31.64q.75.28 1.8.28 1.61 0 2.49-.76t.88-2.19q0-.8-.39-1.3-.4-.51-1.06-.85t-1.5-.58-1.71-.52-1.71-.67-1.49-1.02q-.66-.63-1.06-1.58-.4-.94-.4-2.33 0-1.1.44-2.15t1.28-1.87q.84-.81 2.07-1.3 1.24-.49 2.83-.49 1.79 0 3.31.56 1.51.56 2.57 1.57m10.68 14.63v-2.42q-1.49.07-2.52.26-1.02.19-1.63.48-.62.29-.89.69-.26.39-.26.85 0 .91.54 1.3t1.4.39q1.07 0 1.84-.38.78-.39 1.52-1.17m-7.3-7.55-.62-1.1q2.48-2.27 5.96-2.27 1.26 0 2.26.41.99.42 1.68 1.15.68.74 1.04 1.76t.36 2.24v9.07h-1.57q-.49 0-.76-.15-.26-.14-.42-.59l-.3-1.04q-.55.49-1.07.86t-1.08.63q-.56.25-1.19.38-.64.13-1.41.13-.91 0-1.68-.24-.77-.25-1.33-.74t-.87-1.21q-.31-.73-.31-1.7 0-.54.19-1.08.18-.54.59-1.03t1.07-.93q.66-.43 1.62-.75t2.23-.53q1.28-.2 2.91-.24v-.84q0-1.44-.61-2.14-.62-.69-1.78-.69-.84 0-1.39.2-.56.19-.98.44-.42.24-.76.44-.34.19-.76.19-.37 0-.62-.18-.25-.19-.4-.45m2.6-8.05-.63-.91q.22-.16.55-.31.32-.15.7-.25.39-.09.82-.15.44-.06.88-.06 1.46 0 2.15.55.7.55.7 1.39 0 .74-.49 1.29t-1.22.88l-.31 1.2h-1.65v-2.1q.73-.1.98-.35t.25-.55q0-.29-.2-.49-.19-.19-.65-.19-.26 0-.47.05-.21.06-.38.13-.18.07-.32.13-.14.05-.26.05-.16 0-.25-.08-.1-.09-.2-.23m14.32 5.58.24 1.13q.43-.43.92-.81.48-.37 1.02-.63.54-.25 1.15-.4.62-.15 1.35-.15 1.17 0 2.08.4t1.52 1.12.93 1.72q.31 1 .31 2.21v9.14h-3.46v-9.14q0-1.32-.6-2.04t-1.83-.72q-.9 0-1.68.41-.79.4-1.49 1.1v10.39h-3.45v-14.36h2.11q.67 0 .88.63m23.06 3.57v6.44q.59.71 1.28 1 .69.3 1.51.3.78 0 1.41-.3.63-.29 1.07-.89t.68-1.52.24-2.16q0-1.26-.21-2.14-.2-.87-.58-1.42-.37-.55-.91-.8t-1.23-.25q-1.08 0-1.83.45-.76.46-1.43 1.29m-.46-3.57.28 1.33q.88-1 2-1.61 1.12-.62 2.63-.62 1.18 0 2.15.49t1.68 1.42 1.09 2.3q.39 1.36.39 3.13 0 1.61-.44 2.98-.43 1.37-1.24 2.38-.8 1.01-1.94 1.57-1.14.57-2.56.57-1.2 0-2.05-.37-.86-.37-1.53-1.03v5.88h-3.46v-19.05h2.12q.67 0 .88.63m16.36-7.07v7.98q.84-.79 1.85-1.28t2.37-.49q1.17 0 2.08.4t1.52 1.12.93 1.72q.31 1 .31 2.21v9.14h-3.46v-9.14q0-1.32-.6-2.04t-1.83-.72q-.9 0-1.68.41-.79.4-1.49 1.1v10.39h-3.45v-20.8zm19.93 17.09v-2.42q-1.5.07-2.52.26-1.03.19-1.64.48-.62.29-.88.69-.27.39-.27.85 0 .91.54 1.3t1.41.39q1.06 0 1.84-.38.77-.39 1.52-1.17m-7.31-7.55-.62-1.1q2.48-2.27 5.97-2.27 1.26 0 2.25.41.99.42 1.68 1.15.69.74 1.04 1.76.36 1.02.36 2.24v9.07h-1.57q-.49 0-.75-.15-.27-.14-.42-.59l-.31-1.04q-.55.49-1.07.86-.51.37-1.07.63-.56.25-1.2.38t-1.41.13q-.91 0-1.68-.24-.77-.25-1.33-.74t-.87-1.21q-.3-.73-.3-1.7 0-.54.18-1.08t.59-1.03q.42-.49 1.07-.93.66-.43 1.62-.75t2.23-.53q1.28-.2 2.92-.24v-.84q0-1.44-.62-2.14-.62-.69-1.78-.69-.84 0-1.39.2-.55.19-.97.44l-.77.44q-.34.19-.76.19-.36 0-.62-.18-.25-.19-.4-.45m6.66-8.98 3.21 3.89h-2.31q-.38 0-.7-.25l-1.47-1.56q-.16-.14-.3-.33-.15.19-.29.33l-1.5 1.56q-.11.09-.3.17t-.4.08h-2.39l3.2-3.89zm1.37-1.33-.63-.91q.45-.35 1.05-.56.61-.21 1.33-.21.56 0 1.05.13.48.13.83.4.35.26.55.67.21.41.21.94 0 .73-.51 1.28-.5.55-1.29.83l-.22.59h-1.33v-1.64q.73-.08 1.09-.34.37-.26.37-.58 0-.28-.22-.47t-.62-.19q-.2 0-.37.06-.17.05-.31.12l-.28.13q-.12.05-.25.05-.17 0-.26-.08t-.19-.22m9.36 21.57h-3.46v-14.36h2.11q.67 0 .88.63l.23 1.06q.38-.42.79-.77t.88-.6 1.01-.4 1.18-.15q1.36 0 2.24.74.87.73 1.3 1.95.34-.71.84-1.23.51-.51 1.11-.83t1.28-.47q.68-.16 1.37-.16 1.19 0 2.11.37.92.36 1.55 1.06t.96 1.71.33 2.31v9.14h-3.46v-9.14q0-1.37-.6-2.07-.6-.69-1.76-.69-.53 0-.99.18-.45.18-.8.53-.34.34-.54.86-.19.52-.19 1.19v9.14h-3.47v-9.14q0-1.44-.58-2.1-.59-.66-1.71-.66-.75 0-1.4.37t-1.21 1.02z"/></svg>