<svg xmlns="http://www.w3.org/2000/svg" width="250" height="250" viewBox="0 0 250 250"><rect width="100%" height="100%" fill="#DDDDDD"/><path fill="#999999" d="m67.09 113.675-1.17 2.23q-.21.36-.44.53-.24.17-.59.17-.37 0-.8-.27-.43-.28-1.02-.61-.6-.33-1.39-.6-.8-.27-1.88-.27-.98 0-1.72.23-.73.24-1.23.66t-.75 1.01q-.24.58-.24 1.28 0 .89.5 1.49.5.59 1.32 1.01t1.87.76q1.05.33 2.15.71 1.11.37 2.16.87t1.87 1.26 1.32 1.86q.5 1.11.5 2.68 0 1.72-.59 3.21-.58 1.5-1.71 2.61t-2.76 1.75-3.73.64q-1.2 0-2.38-.24-1.17-.23-2.24-.67-1.08-.44-2.03-1.05-.94-.61-1.68-1.37l1.39-2.25q.17-.25.45-.41.28-.17.6-.17.43 0 .94.36t1.21.79q.7.44 1.64.8.93.36 2.24.36 2.02 0 3.12-.95 1.1-.96 1.1-2.74 0-1-.5-1.63t-1.32-1.06-1.87-.73q-1.05-.29-2.14-.64-1.08-.35-2.13-.84t-1.87-1.28q-.83-.79-1.32-1.97-.5-1.18-.5-2.91 0-1.39.55-2.7t1.6-2.33q1.05-1.01 2.59-1.62 1.54-.62 3.53-.62 2.24 0 4.13.7t3.22 1.96m13.36 18.29v-3.03q-1.88.09-3.15.33-1.28.23-2.05.6t-1.1.86q-.34.49-.34 1.07 0 1.13.68 1.62.67.49 1.76.49 1.33 0 2.3-.48t1.9-1.46m-9.14-9.43-.77-1.38q3.1-2.84 7.46-2.84 1.57 0 2.81.52 1.25.51 2.1 1.43.86.92 1.31 2.2.44 1.28.44 2.8v11.34H82.7q-.61 0-.94-.18-.33-.19-.53-.75l-.38-1.29q-.68.61-1.33 1.07-.65.47-1.35.78-.7.32-1.49.48-.8.17-1.76.17-1.14 0-2.1-.31-.97-.3-1.67-.92-.7-.61-1.08-1.52-.39-.91-.39-2.12 0-.68.23-1.35.23-.68.75-1.29.51-.61 1.33-1.15.83-.55 2.03-.95 1.19-.4 2.79-.65 1.59-.26 3.64-.31v-1.05q0-1.8-.77-2.67t-2.23-.87q-1.05 0-1.74.25-.69.24-1.21.55-.53.31-.96.55-.43.25-.95.25-.46 0-.77-.24-.32-.24-.51-.55m3.26-10.06-.79-1.14q.28-.21.68-.39.4-.19.89-.31.48-.12 1.02-.19t1.1-.07q1.82 0 2.69.68.86.68.86 1.73 0 .93-.61 1.62t-1.52 1.09l-.39 1.51h-2.06v-2.63q.91-.12 1.22-.43.32-.32.32-.69 0-.36-.25-.61-.24-.24-.82-.24-.31 0-.58.07-.26.07-.48.15l-.39.16q-.18.07-.33.07-.2 0-.32-.1-.12-.11-.24-.28m17.9 6.96.3 1.42q.54-.54 1.14-1.01.61-.46 1.28-.78.67-.33 1.44-.51.77-.19 1.68-.19 1.47 0 2.61.5t1.9 1.4 1.16 2.16q.39 1.25.39 2.75v11.43h-4.32v-11.43q0-1.64-.76-2.54-.75-.91-2.29-.91-1.12 0-2.1.51t-1.85 1.38v12.99h-4.33v-17.96h2.65q.84 0 1.1.79m28.82 4.46v8.05q.74.9 1.6 1.26.87.37 1.88.37.98 0 1.77-.37.79-.36 1.34-1.12.55-.75.85-1.89.3-1.15.3-2.71 0-1.57-.26-2.67-.25-1.09-.72-1.77-.48-.69-1.15-1-.67-.32-1.53-.32-1.35 0-2.29.57-.95.57-1.79 1.6m-.58-4.46.35 1.66q1.11-1.24 2.51-2.01t3.29-.77q1.47 0 2.68.61 1.22.62 2.1 1.78.89 1.16 1.37 2.87t.48 3.91q0 2.01-.54 3.73-.55 1.71-1.55 2.97-1.01 1.26-2.43 1.97-1.43.71-3.2.71-1.5 0-2.57-.46-1.07-.47-1.91-1.29v7.35h-4.32v-23.82h2.64q.84 0 1.1.79m20.46-8.84v9.98q1.05-.98 2.31-1.59 1.26-.62 2.96-.62 1.47 0 2.61.5 1.13.5 1.9 1.4.76.9 1.15 2.16.39 1.25.39 2.75v11.43h-4.32v-11.43q0-1.64-.75-2.54-.75-.91-2.29-.91-1.12 0-2.1.51t-1.86 1.38v12.99h-4.32v-26.01zm24.91 21.37v-3.03q-1.88.09-3.16.33-1.27.23-2.04.6t-1.1.86q-.34.49-.34 1.07 0 1.13.68 1.62.67.49 1.76.49 1.33 0 2.3-.48t1.9-1.46m-9.14-9.43-.77-1.38q3.1-2.84 7.46-2.84 1.57 0 2.81.52 1.25.51 2.1 1.43.86.92 1.31 2.2.44 1.28.44 2.8v11.34h-1.96q-.61 0-.94-.18-.33-.19-.53-.75l-.38-1.29q-.68.61-1.33 1.07-.65.47-1.35.78-.7.32-1.5.48-.79.17-1.75.17-1.14 0-2.1-.31-.97-.3-1.67-.92-.7-.61-1.08-1.52-.39-.91-.39-2.12 0-.68.23-1.35.23-.68.74-1.29.52-.61 1.34-1.15.83-.55 2.02-.95 1.2-.4 2.8-.65 1.59-.26 3.64-.31v-1.05q0-1.8-.77-2.67-.78-.87-2.23-.87-1.05 0-1.74.25-.69.24-1.21.55-.53.31-.96.55-.43.25-.95.25-.46 0-.77-.24-.32-.24-.51-.55m8.33-11.24 4.01 4.87h-2.89q-.47 0-.87-.32l-1.84-1.94q-.19-.17-.37-.42-.19.25-.37.42l-1.87 1.94q-.14.13-.38.22-.23.1-.49.1h-3l4.01-4.87zm1.72-1.66-.79-1.14q.56-.43 1.31-.7.75-.26 1.66-.26.7 0 1.31.17.6.16 1.04.5.44.33.69.84.25.5.25 1.17 0 .91-.63 1.6t-1.61 1.04l-.28.74h-1.66v-2.05q.91-.11 1.36-.43.46-.32.46-.73 0-.35-.27-.58-.27-.24-.78-.24-.24 0-.45.07-.22.07-.4.16t-.34.16-.31.07q-.21 0-.33-.11-.11-.1-.23-.28m11.69 26.97h-4.33v-17.96H177q.84 0 1.1.79l.28 1.33q.47-.52.99-.96.51-.44 1.1-.75.59-.32 1.26-.5.67-.19 1.48-.19 1.7 0 2.79.92t1.64 2.44q.42-.89 1.05-1.53.62-.64 1.38-1.04.75-.4 1.6-.59.85-.2 1.71-.2 1.48 0 2.64.46 1.15.45 1.94 1.33.79.87 1.2 2.13t.41 2.89v11.43h-4.32v-11.43q0-1.71-.75-2.58-.76-.87-2.21-.87-.66 0-1.23.23t-1 .66-.67 1.07q-.25.65-.25 1.49v11.43h-4.34v-11.43q0-1.8-.73-2.62-.72-.83-2.12-.83-.95 0-1.76.47-.81.46-1.51 1.27z"/></svg>