<svg xmlns="http://www.w3.org/2000/svg" width="300" height="200" viewBox="0 0 300 200"><rect width="100%" height="100%" fill="#DDDDDD"/><path fill="#999999" d="M66.37 109.975h5.17q1.43 0 2.4-.34t1.54-.91q.58-.57.84-1.33t.26-1.62q0-.89-.29-1.6-.28-.72-.89-1.22t-1.57-.77-2.31-.27h-5.15zm4.36-19.53h-4.36v7.94h4.07q2.62 0 3.96-.95t1.34-3.02q0-2.15-1.21-3.06-1.22-.91-3.8-.91m-9.47-3.95h9.47q2.69 0 4.61.51t3.15 1.46q1.22.95 1.79 2.3t.57 3.04q0 .97-.28 1.85-.29.89-.89 1.66-.59.77-1.52 1.39-.92.63-2.19 1.07 5.66 1.27 5.66 6.12 0 1.74-.66 3.23-.67 1.48-1.94 2.55t-3.14 1.68q-1.86.61-4.25.61H61.26zm27.99 15.48h8.85q0-.91-.25-1.72-.26-.81-.77-1.41-.51-.61-1.3-.96t-1.84-.35q-2.03 0-3.2 1.15-1.17 1.16-1.49 3.29m11.97 2.83H89.16q.11 1.5.53 2.6.42 1.09 1.1 1.8t1.62 1.06q.94.36 2.08.36t1.97-.27 1.44-.59q.62-.32 1.09-.59.46-.26.9-.26.59 0 .87.43l1.35 1.71q-.78.92-1.74 1.53-.97.62-2.03.99-1.05.37-2.15.52-1.09.15-2.11.15-2.04 0-3.78-.67-1.75-.67-3.04-1.99-1.3-1.33-2.04-3.27-.74-1.95-.74-4.51 0-2 .65-3.76.64-1.75 1.85-3.06 1.21-1.3 2.94-2.06 1.74-.76 3.93-.76 1.84 0 3.4.59t2.68 1.72 1.76 2.77q.63 1.65.63 3.76 0 1.06-.23 1.43-.22.37-.87.37m17.58-8.22-1.07 1.69q-.19.3-.4.42-.21.13-.53.13-.34 0-.73-.19t-.9-.43q-.52-.24-1.17-.43-.66-.19-1.55-.19-1.39 0-2.18.59-.78.59-.78 1.54 0 .63.4 1.05.41.43 1.09.75.67.33 1.53.58.85.26 1.73.57.89.3 1.74.69.86.39 1.53.99.68.59 1.09 1.43.4.84.4 2.02 0 1.4-.5 2.59t-1.49 2.05-2.44 1.35q-1.46.48-3.36.48-1 0-1.96-.18t-1.85-.5q-.88-.32-1.63-.76t-1.32-.95l1.08-1.79q.21-.32.5-.49.28-.17.72-.17t.83.25q.39.24.9.53.51.28 1.2.53.7.25 1.76.25.84 0 1.44-.2t.98-.53q.39-.32.57-.75.19-.42.19-.88 0-.68-.41-1.12t-1.09-.76q-.67-.32-1.54-.58-.86-.26-1.76-.56t-1.77-.71q-.86-.41-1.54-1.04-.67-.62-1.08-1.54-.41-.91-.41-2.2 0-1.2.48-2.28.47-1.08 1.39-1.89t2.3-1.29q1.38-.49 3.18-.49 2.02 0 3.67.67 1.65.66 2.76 1.75m10.24 17.68q-2.55 0-3.91-1.43t-1.36-3.96v-10.89h-1.99q-.38 0-.65-.25-.26-.24-.26-.74v-1.86l3.13-.51.99-5.32q.09-.38.36-.59t.68-.21h2.44v6.14h5.2v3.34h-5.2v10.56q0 .92.44 1.43.45.51 1.23.51.44 0 .73-.1.29-.11.51-.22t.39-.22q.17-.1.34-.1.21 0 .35.1.13.11.28.31l1.41 2.28q-1.03.86-2.36 1.3-1.33.43-2.75.43m7.48-9.82v-3.91h9.84v3.91zm27.29-7.86-1.07 1.69q-.19.3-.4.42-.21.13-.53.13-.34 0-.73-.19t-.9-.43q-.52-.24-1.17-.43-.66-.19-1.55-.19-1.39 0-2.18.59-.78.59-.78 1.54 0 .63.4 1.05.41.43 1.09.75.67.33 1.53.58.85.26 1.74.57.88.3 1.73.69.86.39 1.53.99.68.59 1.09 1.43t.41 2.02q0 1.4-.51 2.59-.5 1.19-1.49 2.05t-2.44 1.35q-1.45.48-3.35.48-1.01 0-1.97-.18t-1.84-.5q-.89-.32-1.64-.76t-1.32-.95l1.08-1.79q.21-.32.5-.49.28-.17.72-.17t.83.25q.39.24.9.53.51.28 1.21.53.69.25 1.75.25.84 0 1.44-.2t.99-.53q.39-.32.57-.75.18-.42.18-.88 0-.68-.41-1.12t-1.09-.76q-.67-.32-1.53-.58-.87-.26-1.77-.56t-1.77-.71q-.86-.41-1.54-1.04-.67-.62-1.08-1.54-.41-.91-.41-2.2 0-1.2.48-2.28.47-1.08 1.39-1.89t2.3-1.29q1.38-.49 3.18-.49 2.02 0 3.67.67 1.65.66 2.76 1.75m7.44 5.39h8.86q0-.91-.26-1.72-.25-.81-.77-1.41-.51-.61-1.3-.96t-1.83-.35q-2.04 0-3.2 1.15-1.17 1.16-1.5 3.29m11.97 2.83h-12.06q.11 1.5.53 2.6.42 1.09 1.1 1.8.69.71 1.63 1.06.94.36 2.08.36t1.96-.27q.83-.27 1.45-.59t1.08-.59q.47-.26.9-.26.59 0 .88.43l1.35 1.71q-.78.92-1.75 1.53-.97.62-2.02.99-1.06.37-2.15.52t-2.12.15q-2.03 0-3.78-.67t-3.04-1.99q-1.29-1.33-2.03-3.27-.74-1.95-.74-4.51 0-2 .64-3.76.65-1.75 1.85-3.06 1.21-1.3 2.95-2.06t3.92-.76q1.85 0 3.4.59 1.56.59 2.68 1.72t1.76 2.77q.64 1.65.64 3.76 0 1.06-.23 1.43t-.88.37m4.68-19.07h4.69v28.23h-4.69zm9.44 0h4.69v28.23h-4.69zm13.09 16.24h8.86q0-.91-.26-1.72t-.77-1.41q-.51-.61-1.3-.96t-1.83-.35q-2.04 0-3.21 1.15-1.16 1.16-1.49 3.29m11.97 2.83h-12.06q.11 1.5.53 2.6.42 1.09 1.1 1.8.69.71 1.63 1.06.94.36 2.08.36t1.96-.27q.83-.27 1.45-.59.61-.32 1.08-.59.47-.26.9-.26.59 0 .88.43l1.35 1.71q-.78.92-1.75 1.53-.97.62-2.03.99-1.05.37-2.14.52-1.1.15-2.12.15-2.03 0-3.78-.67t-3.04-1.99q-1.29-1.33-2.04-3.27-.74-1.95-.74-4.51 0-2 .65-3.76.65-1.75 1.85-3.06 1.21-1.3 2.95-2.06t3.92-.76q1.84 0 3.4.59t2.68 1.72 1.76 2.77q.63 1.65.63 3.76 0 1.06-.22 1.43-.23.37-.88.37m8.76-9.16.29 2.21q.91-1.75 2.16-2.75 1.26-1 2.97-1 1.35 0 2.16.59l-.3 3.52q-.1.34-.28.48-.18.15-.48.15-.29 0-.85-.1-.56-.09-1.09-.09-.78 0-1.39.22-.6.23-1.09.66-.48.43-.85 1.04-.37.6-.7 1.38v12.01h-4.69v-19.49h2.75q.73 0 1.01.25.29.26.38.92"/></svg>