<svg xmlns="http://www.w3.org/2000/svg" width="324" height="300" viewBox="0 0 324 300"><rect width="100%" height="100%" fill="#DDDDDD"/><path fill="#999999" d="m87.545 135.445-1.5 2.85q-.27.48-.58.69-.3.21-.75.21-.47 0-1.02-.35-.56-.34-1.32-.77-.77-.43-1.79-.78t-2.42-.35q-1.26 0-2.2.31-.95.3-1.59.84t-.96 1.29q-.31.76-.31 1.66 0 1.15.64 1.91t1.7 1.31q1.06.54 2.41.96 1.35.43 2.76.91 1.42.49 2.77 1.13t2.41 1.62 1.7 2.4q.64 1.41.64 3.44 0 2.2-.75 4.13-.76 1.92-2.21 3.35t-3.54 2.25q-2.1.82-4.8.82-1.55 0-3.06-.3-1.5-.31-2.89-.87-1.38-.56-2.6-1.35-1.21-.79-2.16-1.76l1.78-2.9q.23-.31.59-.53.36-.21.76-.21.56 0 1.22.46.65.46 1.55 1.02.9.57 2.1 1.03 1.21.46 2.89.46 2.59 0 4.01-1.23 1.42-1.22 1.42-3.52 0-1.28-.64-2.09-.65-.81-1.7-1.36-1.06-.55-2.41-.93-1.35-.39-2.75-.84-1.39-.45-2.74-1.08t-2.41-1.64-1.7-2.53-.64-3.75q0-1.77.71-3.46t2.06-3q1.35-1.3 3.33-2.09 1.98-.78 4.54-.78 2.88 0 5.31.9t4.14 2.52m17.17 23.51v-3.9q-2.41.12-4.05.42-1.64.31-2.63.78t-1.42 1.1-.43 1.37q0 1.47.87 2.1t2.26.63q1.71 0 2.96-.62t2.44-1.88m-11.74-12.13-.99-1.78q3.98-3.64 9.58-3.64 2.03 0 3.63.66 1.59.67 2.69 1.85 1.11 1.18 1.68 2.82t.57 3.6v14.58h-2.52q-.78 0-1.21-.24-.43-.23-.68-.95l-.49-1.67q-.88.79-1.71 1.39-.83.59-1.73 1-.9.4-1.93.62-1.02.21-2.26.21-1.46 0-2.7-.39-1.24-.4-2.13-1.18-.91-.79-1.4-1.96t-.49-2.72q0-.88.29-1.75.29-.86.95-1.65.67-.79 1.73-1.49 1.05-.69 2.59-1.21 1.55-.52 3.59-.85 2.05-.32 4.68-.39v-1.35q0-2.32-.99-3.43-.99-1.12-2.86-1.12-1.35 0-2.23.32-.89.31-1.57.71l-1.22.71q-.55.31-1.23.31-.59 0-.99-.3-.41-.3-.65-.71m4.18-12.94-1.01-1.46q.36-.27.88-.51.52-.23 1.13-.39.62-.16 1.32-.25t1.42-.09q2.34 0 3.45.88t1.11 2.23q0 1.19-.78 2.08-.79.89-1.96 1.41l-.5 1.93h-2.65v-3.37q1.17-.16 1.57-.57.41-.4.41-.88 0-.47-.32-.78-.31-.32-1.05-.32-.41 0-.74.09-.34.09-.62.21-.29.11-.51.2-.23.09-.43.09-.24 0-.4-.14-.16-.13-.32-.36m23.02 8.96.38 1.82q.7-.7 1.48-1.29.77-.6 1.64-1.02.86-.41 1.85-.65t2.16-.24q1.89 0 3.36.65 1.46.64 2.44 1.8t1.48 2.76q.51 1.61.51 3.55v14.69h-5.56v-14.69q0-2.12-.97-3.28-.96-1.16-2.94-1.16-1.44 0-2.7.66-1.26.65-2.39 1.77v16.7h-5.56v-23.09h3.4q1.08 0 1.42 1.02m37.06 5.73v10.36q.94 1.14 2.06 1.61 1.11.48 2.41.48 1.26 0 2.28-.48 1.01-.47 1.72-1.43.71-.97 1.09-2.45.38-1.47.38-3.47 0-2.03-.32-3.43-.33-1.41-.94-2.29-.61-.87-1.47-1.28-.87-.41-1.97-.41-1.73 0-2.95.74-1.21.73-2.29 2.05m-.75-5.73.45 2.14q1.42-1.6 3.22-2.59t4.23-.99q1.89 0 3.46.79 1.56.78 2.7 2.28 1.13 1.49 1.75 3.69.62 2.19.62 5.03 0 2.59-.7 4.79-.7 2.21-1.99 3.83t-3.13 2.53q-1.83.91-4.1.91-1.94 0-3.31-.6-1.37-.59-2.45-1.65v9.45h-5.56v-30.63h3.4q1.08 0 1.41 1.02m26.31-11.37v12.83q1.35-1.26 2.97-2.05t3.8-.79q1.89 0 3.35.65 1.46.64 2.44 1.8t1.49 2.76q.5 1.61.5 3.55v14.69h-5.55v-14.69q0-2.12-.97-3.28t-2.95-1.16q-1.44 0-2.7.66-1.26.65-2.38 1.77v16.7h-5.56v-33.44zm32.01 27.48v-3.9q-2.4.12-4.05.42-1.64.31-2.63.78t-1.42 1.1q-.42.63-.42 1.37 0 1.47.86 2.1.87.63 2.26.63 1.71 0 2.96-.62t2.44-1.88m-11.74-12.13-.99-1.78q3.98-3.64 9.58-3.64 2.03 0 3.63.66 1.59.67 2.7 1.85 1.1 1.18 1.67 2.82.58 1.64.58 3.6v14.58h-2.52q-.79 0-1.22-.24-.43-.23-.67-.95l-.5-1.67q-.88.79-1.71 1.39-.83.59-1.73 1-.9.4-1.92.62-1.03.21-2.27.21-1.46 0-2.7-.39-1.23-.4-2.13-1.18-.9-.79-1.4-1.96-.49-1.17-.49-2.72 0-.88.29-1.75.29-.86.96-1.65.66-.79 1.72-1.49 1.05-.69 2.6-1.21 1.54-.52 3.58-.85 2.05-.32 4.68-.39v-1.35q0-2.32-.99-3.43-.99-1.12-2.85-1.12-1.35 0-2.24.32-.89.31-1.57.71l-1.22.71q-.55.31-1.23.31-.58 0-.99-.3-.4-.3-.65-.71m10.71-14.44 5.15 6.25h-3.71q-.61 0-1.13-.4l-2.36-2.5q-.25-.23-.47-.54-.25.31-.47.54l-2.41 2.5q-.18.15-.48.28-.31.12-.65.12h-3.84l5.15-6.25zm2.2-2.14-1.01-1.46q.72-.57 1.69-.9.97-.34 2.14-.34.9 0 1.67.21.78.21 1.34.64t.89 1.08q.33.66.33 1.51 0 1.17-.81 2.06t-2.07 1.34l-.36.94h-2.14v-2.63q1.17-.13 1.75-.55.59-.42.59-.93 0-.46-.35-.76t-1-.3q-.32 0-.59.09t-.5.2l-.44.2q-.2.09-.41.09-.27 0-.41-.13-.15-.14-.31-.36m15.03 34.67h-5.55v-23.09h3.39q1.08 0 1.42 1.02l.36 1.71q.61-.68 1.27-1.24.67-.56 1.42-.97.75-.4 1.62-.64t1.9-.24q2.18 0 3.59 1.19 1.41 1.18 2.1 3.13.54-1.14 1.35-1.96t1.78-1.34 2.06-.77 2.19-.25q1.92 0 3.4.59 1.49.59 2.5 1.71 1.01 1.13 1.54 2.75.53 1.61.53 3.71v14.69h-5.56v-14.69q0-2.21-.97-3.32-.96-1.12-2.83-1.12-.86 0-1.59.3-.73.29-1.28.84t-.87 1.38q-.31.84-.31 1.92v14.69h-5.58v-14.69q0-2.32-.93-3.38-.94-1.06-2.74-1.06-1.21 0-2.26.6t-1.95 1.63z"/></svg>