<svg xmlns="http://www.w3.org/2000/svg" width="500" height="1000" viewBox="0 0 500 1000"><rect width="100%" height="100%" fill="#DDDDDD"/><path fill="#999999" d="m134.185 477.355-2.35 4.44q-.42.74-.89 1.07t-1.17.33q-.74 0-1.59-.54-.86-.54-2.05-1.21-1.19-.66-2.78-1.2-1.6-.55-3.77-.55-1.96 0-3.43.48-1.47.47-2.46 1.31-1 .84-1.49 2.01t-.49 2.57q0 1.79 1 2.98.99 1.19 2.64 2.03 1.64.84 3.74 1.5 2.1.67 4.31 1.42 2.2.75 4.3 1.75t3.75 2.52q1.64 1.52 2.64 3.73 1 2.2 1 5.35 0 3.43-1.17 6.43-1.18 2.99-3.43 5.21-2.26 2.22-5.52 3.5-3.25 1.28-7.45 1.28-2.42 0-4.76-.47-2.35-.48-4.5-1.35-2.15-.88-4.04-2.1-1.89-1.23-3.36-2.73l2.76-4.52q.35-.49.91-.82t1.19-.33q.88 0 1.89.72 1.02.71 2.42 1.59 1.4.87 3.27 1.59t4.5.72q4.02 0 6.23-1.91 2.2-1.91 2.2-5.48 0-1.99-.99-3.25-1-1.26-2.65-2.12-1.64-.86-3.74-1.45-2.1-.6-4.27-1.3t-4.27-1.68-3.75-2.55q-1.64-1.58-2.64-3.94t-1-5.83q0-2.76 1.11-5.39 1.1-2.62 3.2-4.65t5.18-3.26q3.08-1.22 7.07-1.22 4.48 0 8.26 1.4t6.44 3.92m26.7 36.57v-6.05q-3.74.17-6.3.65-2.55.47-4.09 1.2-1.54.74-2.21 1.72-.66.98-.66 2.13 0 2.28 1.35 3.26 1.34.98 3.51.98 2.66 0 4.61-.96 1.94-.97 3.79-2.93m-18.27-18.86-1.54-2.77q6.2-5.67 14.91-5.67 3.15 0 5.64 1.04 2.48 1.03 4.2 2.87 1.71 1.83 2.61 4.39.89 2.55.89 5.6v22.68h-3.92q-1.23 0-1.89-.37-.67-.37-1.05-1.49l-.77-2.59q-1.37 1.23-2.66 2.16-1.3.92-2.7 1.55t-2.99.97q-1.59.33-3.52.33-2.27 0-4.2-.61-1.92-.62-3.32-1.84-1.4-1.23-2.17-3.05t-.77-4.23q0-1.37.45-2.71.46-1.35 1.49-2.58 1.03-1.22 2.68-2.31 1.64-1.08 4.04-1.89 2.4-.8 5.58-1.31 3.19-.51 7.28-.61v-2.1q0-3.61-1.54-5.34t-4.44-1.73q-2.1 0-3.48.49-1.39.49-2.44 1.1t-1.9 1.1q-.86.49-1.91.49-.91 0-1.54-.47t-1.02-1.1m6.51-20.13-1.57-2.27q.56-.42 1.36-.79.81-.37 1.77-.61.96-.25 2.05-.39 1.08-.14 2.2-.14 3.64 0 5.38 1.37 1.73 1.36 1.73 3.46 0 1.86-1.23 3.24-1.22 1.38-3.04 2.19l-.77 3.01h-4.13v-5.25q1.82-.25 2.45-.88t.63-1.36q0-.74-.49-1.23t-1.65-.49q-.63 0-1.15.14-.53.14-.96.32-.44.17-.79.31t-.67.14q-.38 0-.63-.21-.24-.21-.49-.56m35.81 13.93.59 2.84q1.09-1.09 2.3-2.01 1.2-.93 2.55-1.58t2.89-1.01q1.54-.37 3.36-.37 2.94 0 5.21 1 2.28.99 3.8 2.8 1.52 1.8 2.31 4.3t.79 5.51v22.86h-8.65v-22.86q0-3.29-1.5-5.09-1.51-1.8-4.59-1.8-2.24 0-4.2 1.01-1.96 1.02-3.71 2.77v25.97h-8.64v-35.91h5.28q1.68 0 2.21 1.57m57.64 8.93v16.1q1.47 1.78 3.21 2.52 1.73.73 3.76.73 1.96 0 3.53-.73 1.58-.74 2.68-2.24 1.1-1.51 1.7-3.8.59-2.29.59-5.41 0-3.15-.5-5.33-.51-2.19-1.46-3.56-.94-1.36-2.29-1.99t-3.06-.63q-2.7 0-4.59 1.14-1.89 1.13-3.57 3.2m-1.15-8.93.7 3.33q2.2-2.49 5-4.03t6.58-1.54q2.94 0 5.38 1.23 2.43 1.22 4.2 3.55 1.76 2.33 2.73 5.74.96 3.41.96 7.82 0 4.03-1.09 7.46-1.08 3.43-3.09 5.95-2.02 2.52-4.87 3.94t-6.39 1.42q-3.01 0-5.14-.93-2.14-.93-3.82-2.58v14.71h-8.64v-47.64h5.28q1.68 0 2.21 1.57m40.91-17.67v19.95q2.1-1.96 4.62-3.19 2.52-1.22 5.92-1.22 2.94 0 5.21 1 2.28.99 3.8 2.8 1.52 1.8 2.31 4.3t.79 5.51v22.86h-8.65v-22.86q0-3.29-1.5-5.09-1.51-1.8-4.59-1.8-2.24 0-4.2 1.01-1.96 1.02-3.71 2.77v25.97h-8.64v-52.01zm49.81 42.73v-6.05q-3.74.17-6.3.65-2.55.47-4.1 1.2-1.53.74-2.2 1.72t-.67 2.13q0 2.28 1.35 3.26t3.52.98q2.66 0 4.6-.96 1.95-.97 3.8-2.93m-18.27-18.86-1.54-2.77q6.2-5.67 14.91-5.67 3.15 0 5.63 1.04 2.49 1.03 4.21 2.87 1.71 1.83 2.6 4.39.9 2.55.9 5.6v22.68h-3.93q-1.22 0-1.88-.37-.67-.37-1.06-1.49l-.76-2.59q-1.37 1.23-2.66 2.16-1.3.92-2.7 1.55t-2.99.97q-1.59.33-3.52.33-2.27 0-4.2-.61-1.93-.62-3.32-1.84-1.4-1.23-2.18-3.05-.76-1.82-.76-4.23 0-1.37.45-2.71.46-1.35 1.49-2.58 1.03-1.22 2.68-2.31 1.64-1.08 4.04-1.89 2.4-.8 5.58-1.31 3.19-.51 7.28-.61v-2.1q0-3.61-1.54-5.34t-4.45-1.73q-2.09 0-3.48.49-1.38.49-2.43 1.1t-1.91 1.1q-.85.49-1.9.49-.92 0-1.55-.47-.62-.47-1.01-1.1m16.66-22.47 8.02 9.73h-5.78q-.95 0-1.75-.63l-3.68-3.89q-.38-.35-.73-.84-.38.49-.74.84l-3.74 3.89q-.28.24-.75.44-.48.19-1 .19h-5.99l8.02-9.73zm3.43-3.33-1.58-2.27q1.13-.88 2.63-1.4 1.51-.53 3.33-.53 1.4 0 2.6.34 1.21.33 2.09.99.87.67 1.38 1.68.51 1.02.51 2.35 0 1.82-1.27 3.2-1.25 1.38-3.22 2.08l-.56 1.47h-3.32v-4.09q1.82-.21 2.73-.86t.91-1.45q0-.7-.54-1.17-.55-.48-1.56-.48-.49 0-.91.14t-.79.32q-.36.17-.68.31-.31.14-.63.14-.42 0-.65-.21-.22-.21-.47-.56m23.38 53.94h-8.64v-35.91h5.28q1.68 0 2.21 1.57l.55 2.66q.95-1.05 1.98-1.92 1.04-.88 2.21-1.51t2.52-.99q1.35-.37 2.96-.37 3.39 0 5.58 1.84 2.19 1.83 3.27 4.88.84-1.79 2.1-3.06 1.26-1.28 2.77-2.09 1.5-.8 3.2-1.19 1.7-.38 3.41-.38 2.97 0 5.29.91 2.31.91 3.88 2.66 1.58 1.75 2.4 4.27t.82 5.77v22.86h-8.64v-22.86q0-3.43-1.51-5.16-1.5-1.73-4.41-1.73-1.33 0-2.47.45-1.14.46-1.99 1.32-.86.85-1.35 2.15-.49 1.29-.49 2.97v22.86h-8.68v-22.86q0-3.6-1.45-5.25-1.45-1.64-4.25-1.64-1.9 0-3.52.93-1.63.92-3.03 2.53z"/></svg>