<svg xmlns="http://www.w3.org/2000/svg" width="50" height="50" viewBox="0 0 50 50"><rect width="100%" height="100%" fill="#DDDDDD"/><path fill="#999999" d="m13.415 22.74-.23.44q-.04.07-.09.11-.05.03-.12.03t-.16-.05q-.08-.06-.2-.13-.12-.06-.28-.12-.16-.05-.38-.05-.19 0-.34.05-.15.04-.25.13-.1.08-.14.2-.05.12-.05.26 0 .17.1.29t.26.21q.16.08.37.15.21.06.44.14.22.07.43.17t.37.26q.16.15.26.37t.1.53q0 .35-.11.65-.12.3-.35.52-.22.22-.55.35-.32.13-.74.13-.24 0-.48-.05-.23-.05-.45-.14-.21-.08-.4-.21-.19-.12-.34-.27l.28-.45q.03-.05.09-.08.05-.04.12-.04.08 0 .19.08.1.07.24.15.14.09.33.16.18.08.45.08.4 0 .62-.19.22-.2.22-.55 0-.2-.1-.33-.1-.12-.27-.21-.16-.09-.37-.15-.21-.05-.43-.12-.21-.07-.42-.17t-.38-.26q-.16-.16-.26-.39-.1-.24-.1-.58 0-.28.11-.54.11-.27.32-.47t.52-.32q.3-.13.7-.13.45 0 .83.14t.64.4m2.67 3.65v-.6q-.37.01-.63.06-.25.05-.41.12-.15.08-.22.17-.06.1-.06.22 0 .23.13.32.14.1.35.1.27 0 .46-.1.2-.09.38-.29m-1.82-1.88-.16-.28q.62-.57 1.49-.57.32 0 .57.11.25.1.42.28.17.19.26.44.09.26.09.56v2.27h-.39q-.13 0-.19-.04-.07-.03-.11-.15l-.08-.25q-.13.12-.26.21t-.27.16q-.14.06-.3.09-.16.04-.35.04-.23 0-.42-.07-.2-.06-.33-.18-.15-.12-.22-.3-.08-.19-.08-.43 0-.13.05-.27.04-.13.15-.26.1-.12.26-.23.17-.11.41-.19t.56-.13q.31-.05.72-.06v-.21q0-.36-.15-.53-.15-.18-.45-.18-.21 0-.34.05-.14.05-.25.11-.1.07-.19.11-.08.05-.19.05-.09 0-.15-.04-.06-.05-.1-.11m.65-2.02-.16-.22q.06-.05.14-.08.08-.04.17-.06.1-.03.21-.04.11-.02.22-.02.36 0 .54.14.17.14.17.35 0 .18-.12.32-.13.14-.31.22l-.08.3h-.41v-.53q.18-.02.25-.08.06-.07.06-.14t-.05-.12-.16-.05q-.07 0-.12.01l-.1.04q-.04.01-.07.03-.04.01-.07.01-.04 0-.06-.02-.03-.02-.05-.06m3.58 1.4.06.28q.11-.11.23-.2t.25-.16q.14-.06.29-.1.16-.04.34-.04.29 0 .52.1t.38.28.23.43.08.55v2.29h-.87v-2.29q0-.32-.15-.5-.15-.19-.46-.19-.22 0-.42.11-.19.1-.37.27v2.6h-.86v-3.59h.53q.17 0 .22.16m5.76.89v1.61q.15.18.32.25.18.07.38.07t.35-.07q.16-.07.27-.22t.17-.38.06-.54q0-.32-.05-.54t-.15-.35q-.09-.14-.23-.2-.13-.07-.3-.07-.27 0-.46.12-.19.11-.36.32m-.11-.89.07.33q.22-.25.5-.4.28-.16.66-.16.29 0 .53.12.25.13.42.36.18.23.28.57.09.35.09.79 0 .4-.11.74-.1.35-.31.6-.2.25-.48.39-.29.14-.64.14-.3 0-.52-.09-.21-.09-.38-.26v1.47h-.86v-4.76h.53q.16 0 .22.16m4.09-1.77v1.99q.21-.19.46-.31.25-.13.59-.13.3 0 .52.1.23.1.38.28.16.18.23.43.08.25.08.55v2.29h-.86v-2.29q0-.32-.15-.5-.15-.19-.46-.19-.22 0-.42.11-.2.1-.37.27v2.6h-.87v-5.2zm4.98 4.27v-.6q-.38.01-.63.06-.26.05-.41.12-.15.08-.22.17-.07.1-.07.22 0 .23.14.32.13.1.35.1.27 0 .46-.1.19-.09.38-.29m-1.83-1.88-.15-.28q.62-.57 1.49-.57.31 0 .56.11.25.1.42.28.17.19.26.44.09.26.09.56v2.27h-.39q-.12 0-.19-.04-.07-.03-.1-.15l-.08-.25q-.14.12-.27.21t-.27.16q-.14.06-.3.09-.15.04-.35.04-.22 0-.42-.07-.19-.06-.33-.18t-.22-.3q-.07-.19-.07-.43 0-.13.04-.27.05-.13.15-.26.1-.12.27-.23.16-.11.4-.19t.56-.13.73-.06v-.21q0-.36-.15-.53-.16-.18-.45-.18-.21 0-.35.05t-.24.11q-.11.07-.19.11-.09.05-.19.05-.09 0-.16-.04-.06-.05-.1-.11m1.67-2.25.8.97h-.58q-.09 0-.17-.06l-.37-.39q-.04-.03-.07-.08-.04.05-.08.08l-.37.39q-.03.02-.08.04-.04.02-.1.02h-.6l.81-.97zm.34-.33-.16-.23q.12-.09.27-.14t.33-.05q.14 0 .26.03t.21.1.14.17.05.23q0 .18-.13.32t-.32.21l-.06.15h-.33v-.41q.18-.02.27-.09.09-.06.09-.14 0-.07-.05-.12t-.16-.05q-.05 0-.09.02-.04.01-.08.03-.03.02-.06.03-.04.01-.07.01-.04 0-.06-.02zm2.34 5.39h-.87v-3.59h.53q.17 0 .22.16l.06.26q.09-.1.2-.19.1-.09.22-.15t.25-.1.3-.04q.34 0 .55.19.22.18.33.48.09-.17.21-.3.13-.13.28-.21t.32-.12.34-.04q.3 0 .53.09.23.1.39.27.15.17.24.43.08.25.08.57v2.29h-.87v-2.29q0-.34-.15-.51-.15-.18-.44-.18-.13 0-.24.05-.12.05-.2.13-.09.09-.14.22t-.05.29v2.29h-.87v-2.29q0-.36-.14-.52-.15-.17-.43-.17-.19 0-.35.1-.16.09-.3.25z"/></svg>