<svg xmlns="http://www.w3.org/2000/svg" width="600" height="1000" viewBox="0 0 600 1000"><rect width="100%" height="100%" fill="#DDDDDD"/><path fill="#999999" d="m162.68 473.145-2.78 5.28q-.5.87-1.06 1.26-.56.4-1.39.4-.87 0-1.89-.65-1.02-.64-2.43-1.43t-3.3-1.43-4.46-.64q-2.32 0-4.07.56-1.74.56-2.92 1.55-1.18 1-1.77 2.39-.58 1.39-.58 3.05 0 2.12 1.19 3.53 1.18 1.41 3.13 2.4 1.95 1 4.44 1.79t5.1 1.68q2.62.89 5.11 2.07 2.49 1.19 4.44 2.99 1.95 1.81 3.13 4.42 1.19 2.62 1.19 6.35 0 4.07-1.39 7.62-1.39 3.54-4.07 6.18-2.68 2.63-6.54 4.15-3.86 1.51-8.84 1.51-2.86 0-5.64-.56t-5.33-1.59q-2.56-1.04-4.8-2.49-2.24-1.46-3.98-3.24l3.28-5.35q.41-.59 1.08-.98.66-.39 1.41-.39 1.03 0 2.24.85 1.2.85 2.86 1.88 1.66 1.04 3.88 1.89t5.33.85q4.78 0 7.39-2.26 2.62-2.26 2.62-6.49 0-2.37-1.19-3.86-1.18-1.5-3.13-2.51-1.95-1.02-4.44-1.73-2.49-.7-5.06-1.53-2.58-.83-5.07-1.99t-4.44-3.03-3.13-4.67-1.18-6.91q0-3.28 1.3-6.39 1.31-3.11 3.8-5.52t6.14-3.86q3.66-1.45 8.39-1.45 5.31 0 9.79 1.66t7.64 4.64m31.66 43.37v-7.18q-4.44.21-7.47.77t-4.85 1.43q-1.83.87-2.62 2.04-.79 1.16-.79 2.53 0 2.7 1.6 3.86t4.17 1.16q3.16 0 5.46-1.14t4.5-3.47m-21.66-22.37-1.83-3.27q7.35-6.73 17.68-6.73 3.74 0 6.68 1.23 2.95 1.22 4.98 3.4 2.04 2.18 3.09 5.21 1.06 3.03 1.06 6.64v26.89h-4.65q-1.45 0-2.24-.44-.78-.43-1.24-1.76l-.91-3.07q-1.62 1.45-3.16 2.55-1.53 1.1-3.19 1.85t-3.55 1.14-4.17.39q-2.7 0-4.98-.72-2.29-.73-3.95-2.18t-2.57-3.61-.91-5.02q0-1.62.54-3.22t1.76-3.05q1.23-1.45 3.18-2.74t4.79-2.24 6.62-1.56q3.78-.6 8.63-.72v-2.49q0-4.28-1.82-6.33-1.83-2.05-5.28-2.05-2.49 0-4.12.58-1.64.58-2.89 1.3-1.24.73-2.26 1.31t-2.26.58q-1.08 0-1.83-.56t-1.2-1.31m7.72-23.86-1.87-2.7q.66-.49 1.62-.93.95-.44 2.09-.73 1.15-.29 2.43-.45 1.29-.17 2.62-.17 4.31 0 6.37 1.62 2.05 1.62 2.05 4.11 0 2.2-1.45 3.84t-3.61 2.59l-.92 3.57h-4.89v-6.23q2.16-.29 2.9-1.03.75-.75.75-1.62t-.58-1.45-1.95-.58q-.75 0-1.37.16-.62.17-1.14.37l-.94.38q-.41.16-.78.16-.46 0-.75-.24-.29-.25-.58-.67m42.45 16.52.71 3.36q1.28-1.29 2.72-2.39 1.43-1.1 3.03-1.86 1.59-.77 3.42-1.21 1.82-.43 3.98-.43 3.49 0 6.19 1.18 2.69 1.18 4.5 3.32 1.8 2.14 2.74 5.1.93 2.97.93 6.54v27.1h-10.25v-27.1q0-3.9-1.78-6.04-1.79-2.13-5.44-2.13-2.66 0-4.98 1.2t-4.4 3.28v30.79h-10.25v-42.58h6.27q1.99 0 2.61 1.87m68.35 10.58v19.09q1.75 2.12 3.8 2.99t4.46.87q2.32 0 4.19-.87t3.18-2.66q1.3-1.78 2.01-4.5t.71-6.41q0-3.74-.61-6.33-.6-2.59-1.72-4.21t-2.72-2.37q-1.59-.74-3.63-.74-3.19 0-5.43 1.34-2.25 1.35-4.24 3.8m-1.37-10.58.83 3.94q2.62-2.95 5.94-4.77 3.32-1.83 7.8-1.83 3.49 0 6.37 1.46 2.88 1.45 4.98 4.21t3.24 6.8q1.14 4.05 1.14 9.28 0 4.77-1.29 8.84t-3.67 7.05q-2.39 2.99-5.77 4.67t-7.57 1.68q-3.57 0-6.1-1.1-2.54-1.1-4.53-3.05v17.43h-10.25v-56.48h6.27q1.99 0 2.61 1.87m48.52-20.96v23.66q2.49-2.33 5.47-3.78 2.99-1.45 7.02-1.45 3.48 0 6.18 1.18t4.5 3.32q1.81 2.14 2.74 5.1.94 2.97.94 6.54v27.1h-10.25v-27.1q0-3.9-1.79-6.04-1.78-2.13-5.43-2.13-2.66 0-4.98 1.2-2.33 1.2-4.4 3.28v30.79H328.1v-61.67zm59.05 50.67v-7.18q-4.44.21-7.47.77t-4.85 1.43q-1.83.87-2.62 2.04-.79 1.16-.79 2.53 0 2.7 1.6 3.86t4.17 1.16q3.15 0 5.46-1.14 2.3-1.14 4.5-3.47m-21.66-22.37-1.83-3.27q7.35-6.73 17.68-6.73 3.74 0 6.68 1.23 2.95 1.22 4.98 3.4 2.04 2.18 3.09 5.21 1.06 3.03 1.06 6.64v26.89h-4.65q-1.45 0-2.24-.44-.79-.43-1.24-1.76l-.91-3.07q-1.62 1.45-3.16 2.55-1.53 1.1-3.19 1.85t-3.55 1.14-4.17.39q-2.7 0-4.98-.72-2.29-.73-3.95-2.18t-2.57-3.61-.91-5.02q0-1.62.54-3.22t1.76-3.05q1.23-1.45 3.18-2.74t4.79-2.24 6.62-1.56q3.78-.6 8.63-.72v-2.49q0-4.28-1.83-6.33-1.82-2.05-5.27-2.05-2.49 0-4.12.58-1.64.58-2.89 1.3-1.24.73-2.26 1.31t-2.26.58q-1.08 0-1.83-.56t-1.2-1.31m19.75-26.64 9.51 11.54h-6.85q-1.12 0-2.08-.75l-4.35-4.61q-.46-.41-.88-.99-.45.58-.87.99l-4.44 4.61q-.33.29-.89.52t-1.18.23h-7.1l9.5-11.54zm4.07-3.94-1.87-2.7q1.33-1.04 3.11-1.66 1.79-.62 3.95-.62 1.66 0 3.09.39 1.43.4 2.47 1.19 1.03.78 1.64 1.99.6 1.2.6 2.78 0 2.16-1.5 3.8-1.49 1.63-3.81 2.46l-.67 1.75h-3.94v-4.86q2.16-.25 3.24-1.01 1.08-.77 1.08-1.73 0-.83-.65-1.39-.64-.56-1.84-.56-.59 0-1.08.17-.5.16-.94.37-.43.21-.81.38-.37.16-.74.16-.5 0-.77-.25t-.56-.66m27.72 63.95h-10.25v-42.58h6.27q1.99 0 2.61 1.87l.67 3.15q1.12-1.24 2.34-2.28t2.61-1.78q1.4-.75 2.99-1.19 1.6-.43 3.51-.43 4.03 0 6.62 2.18 2.59 2.17 3.88 5.79 1-2.12 2.49-3.64 1.49-1.51 3.28-2.47 1.78-.95 3.79-1.41 2.02-.45 4.05-.45 3.53 0 6.27 1.08 2.74 1.07 4.6 3.15 1.87 2.07 2.85 5.06.97 2.99.97 6.85v27.1h-10.25v-27.1q0-4.07-1.78-6.12-1.79-2.05-5.23-2.05-1.58 0-2.93.53-1.35.54-2.36 1.56-1.02 1.02-1.6 2.55-.58 1.54-.58 3.53v27.1h-10.29v-27.1q0-4.27-1.73-6.22-1.72-1.95-5.04-1.95-2.24 0-4.17 1.09-1.93 1.1-3.59 3.01z"/></svg>