<svg xmlns="http://www.w3.org/2000/svg" width="650" height="250" viewBox="0 0 650 250"><rect width="100%" height="100%" fill="#DDDDDD"/><path fill="#999999" d="m176.095 95.885-3.02 5.72q-.54.94-1.14 1.37-.61.43-1.51.43-.94 0-2.05-.7-1.1-.7-2.63-1.55-1.53-.86-3.58-1.56-2.05-.69-4.84-.69-2.52 0-4.4.6-1.9.61-3.18 1.69t-1.91 2.59q-.63 1.5-.63 3.31 0 2.29 1.28 3.82t3.4 2.61q2.11 1.08 4.81 1.93 2.7.86 5.54 1.83 2.83.96 5.53 2.25 2.7 1.28 4.82 3.24 2.11 1.95 3.4 4.79 1.28 2.84 1.28 6.89 0 4.41-1.51 8.25-1.51 3.85-4.41 6.71t-7.09 4.5q-4.18 1.64-9.58 1.64-3.11 0-6.12-.61-3.02-.6-5.78-1.73-2.77-1.13-5.2-2.7t-4.32-3.51l3.55-5.8q.45-.63 1.17-1.06t1.53-.43q1.13 0 2.43.92 1.31.92 3.11 2.05 1.8 1.12 4.21 2.05 2.4.92 5.78.92 5.17 0 8.01-2.45 2.83-2.45 2.83-7.05 0-2.56-1.28-4.18t-3.4-2.72q-2.11-1.1-4.81-1.87-2.7-.76-5.49-1.66-2.79-.91-5.49-2.16-2.7-1.26-4.82-3.29-2.11-2.03-3.39-5.06-1.29-3.04-1.29-7.49 0-3.56 1.42-6.93 1.42-3.38 4.12-5.99t6.66-4.19q3.96-1.57 9.09-1.57 5.76 0 10.62 1.8t8.28 5.04m34.33 47.03v-7.79q-4.81.23-8.1.83-3.28.61-5.26 1.56-1.98.94-2.83 2.2-.86 1.26-.86 2.74 0 2.93 1.73 4.19t4.52 1.26q3.42 0 5.92-1.24 2.5-1.23 4.88-3.75m-23.49-24.26-1.98-3.55q7.97-7.29 19.17-7.29 4.05 0 7.25 1.32 3.19 1.33 5.4 3.69 2.21 2.37 3.35 5.65 1.15 3.29 1.15 7.2v29.16h-5.04q-1.58 0-2.43-.47t-1.35-1.91l-.99-3.33q-1.76 1.57-3.42 2.76-1.67 1.2-3.47 2.01-1.79.8-3.84 1.23t-4.53.43q-2.92 0-5.4-.79-2.47-.78-4.27-2.36-1.8-1.57-2.79-3.91-.99-2.35-.99-5.45 0-1.75.58-3.49.59-1.73 1.92-3.31 1.32-1.57 3.44-2.96 2.11-1.4 5.2-2.43 3.08-1.04 7.17-1.69 4.1-.65 9.36-.79v-2.7q0-4.64-1.97-6.86-1.99-2.23-5.72-2.23-2.7 0-4.48.63-1.77.63-3.12 1.42-1.36.79-2.46 1.42-1.1.62-2.45.62-1.17 0-1.98-.6-.81-.61-1.31-1.42m8.37-25.87-2.02-2.93q.72-.54 1.76-1.01 1.03-.48 2.27-.79 1.23-.31 2.63-.49 1.39-.18 2.84-.18 4.67 0 6.9 1.75t2.23 4.46q0 2.38-1.58 4.16-1.57 1.78-3.91 2.81l-.99 3.87h-5.31v-6.75q2.34-.31 3.15-1.12.81-.82.81-1.76t-.63-1.57-2.12-.63q-.8 0-1.48.18-.68.17-1.24.4t-1.01.41-.86.18q-.49 0-.81-.28-.31-.26-.63-.71m46.04 17.91.76 3.64q1.4-1.39 2.95-2.59 1.55-1.19 3.29-2.02 1.73-.84 3.71-1.31t4.32-.47q3.78 0 6.7 1.28 2.93 1.29 4.89 3.6 1.95 2.32 2.97 5.54 1.01 3.22 1.01 7.09v29.38h-11.12v-29.38q0-4.24-1.93-6.55-1.94-2.32-5.9-2.32-2.88 0-5.4 1.3-2.52 1.31-4.77 3.56v33.39h-11.11v-46.17h6.79q2.17 0 2.84 2.03m74.11 11.47v20.7q1.89 2.3 4.12 3.24t4.84.94q2.52 0 4.54-.94 2.03-.94 3.45-2.88 1.41-1.93 2.18-4.88.76-2.95.76-6.96 0-4.04-.65-6.86-.65-2.81-1.87-4.57-1.21-1.75-2.94-2.56-1.74-.81-3.94-.81-3.47 0-5.9 1.46-2.43 1.47-4.59 4.12m-1.48-11.47.9 4.27q2.83-3.19 6.43-5.18 3.6-1.97 8.46-1.97 3.78 0 6.91 1.57t5.4 4.57q2.27 2.99 3.51 7.38t1.24 10.05q0 5.18-1.4 9.59-1.39 4.41-3.98 7.65t-6.25 5.06q-3.67 1.82-8.22 1.82-3.87 0-6.61-1.19-2.75-1.19-4.91-3.3v18.89h-11.11v-61.24h6.79q2.16 0 2.84 2.03m52.6-22.73v25.65q2.7-2.52 5.94-4.09 3.24-1.58 7.61-1.58 3.78 0 6.7 1.28 2.93 1.29 4.89 3.6 1.95 2.32 2.97 5.54 1.01 3.22 1.01 7.09v29.38h-11.12v-29.38q0-4.24-1.93-6.55-1.94-2.32-5.9-2.32-2.88 0-5.4 1.3-2.52 1.31-4.77 3.56v33.39h-11.11v-66.87zm64.04 54.95v-7.79q-4.82.23-8.1.83-3.29.61-5.27 1.56-1.98.94-2.83 2.2-.86 1.26-.86 2.74 0 2.93 1.74 4.19 1.73 1.26 4.52 1.26 3.42 0 5.92-1.24 2.49-1.23 4.88-3.75m-23.49-24.26-1.98-3.55q7.96-7.29 19.17-7.29 4.05 0 7.24 1.32 3.2 1.33 5.4 3.69 2.21 2.37 3.36 5.65 1.14 3.29 1.14 7.2v29.16h-5.04q-1.57 0-2.43-.47-.85-.47-1.35-1.91l-.99-3.33q-1.75 1.57-3.42 2.76-1.66 1.2-3.46 2.01-1.8.8-3.85 1.23t-4.52.43q-2.93 0-5.4-.79-2.48-.78-4.28-2.36-1.8-1.57-2.79-3.91-.99-2.35-.99-5.45 0-1.75.59-3.49.58-1.73 1.91-3.31 1.33-1.57 3.44-2.96 2.12-1.4 5.2-2.43 3.08-1.04 7.18-1.69 4.09-.65 9.36-.79v-2.7q0-4.64-1.98-6.86-1.98-2.23-5.72-2.23-2.7 0-4.47.63-1.78.63-3.13 1.42t-2.45 1.42q-1.11.62-2.46.62-1.17 0-1.98-.6-.81-.61-1.3-1.42m21.42-28.89 10.3 12.51h-7.42q-1.22 0-2.25-.81l-4.73-4.99q-.49-.45-.94-1.09-.5.64-.95 1.09l-4.81 4.99q-.36.32-.97.56-.61.25-1.28.25h-7.7l10.31-12.51zm4.41-4.27-2.03-2.93q1.44-1.12 3.38-1.8 1.93-.67 4.27-.67 1.8 0 3.36.42 1.55.43 2.67 1.29 1.13.85 1.78 2.15.65 1.31.65 3.02 0 2.34-1.62 4.12t-4.14 2.68l-.72 1.89h-4.27v-5.27q2.34-.27 3.51-1.1 1.17-.84 1.17-1.87 0-.9-.7-1.51-.7-.6-2-.6-.63 0-1.17.18t-1.01.4q-.48.22-.88.41-.41.17-.81.17-.54 0-.83-.27-.3-.26-.61-.71m30.06 69.34h-11.12v-46.17h6.8q2.16 0 2.83 2.03l.72 3.41q1.22-1.34 2.55-2.47 1.32-1.12 2.83-1.93 1.51-.82 3.24-1.29t3.8-.47q4.37 0 7.18 2.36 2.81 2.37 4.21 6.28 1.08-2.3 2.7-3.94t3.55-2.67q1.94-1.04 4.12-1.53 2.18-.5 4.39-.5 3.82 0 6.79 1.17t5 3.42q2.02 2.25 3.08 5.49t1.06 7.43v29.38h-11.12v-29.38q0-4.42-1.93-6.64-1.94-2.23-5.67-2.23-1.71 0-3.17.59-1.47.58-2.57 1.68t-1.73 2.77-.63 3.83v29.38h-11.16v-29.38q0-4.64-1.87-6.75-1.87-2.12-5.47-2.12-2.43 0-4.52 1.19t-3.89 3.26z"/></svg>