<svg xmlns="http://www.w3.org/2000/svg" width="300" height="300" viewBox="0 0 300 300"><rect width="100%" height="100%" fill="#DDDDDD"/><path fill="#999999" d="M76.58 162.71h15.87l-6.07-16.59q-.45-1.11-.93-2.62-.48-1.52-.97-3.28-.45 1.76-.93 3.29-.48 1.54-.93 2.68zm12.66-31.05 19.6 49.89h-7.18q-1.2 0-1.96-.6-.76-.61-1.14-1.5l-3.73-10.18H74.17l-3.73 10.18q-.27.79-1.07 1.44-.79.66-1.96.66h-7.25l19.63-49.89zm-10.79-9.62-1.59-2.25q1.1-.82 3.12-1.36 2.02-.53 4.26-.53 3.56 0 5.44 1.31t1.88 3.38q0 .93-.37 1.66-.36.72-.98 1.29t-1.47.97q-.84.39-1.81.67l-.58 1.79h-4.07v-3.83q1.79-.24 2.55-.7.76-.47.76-1.06 0-.65-.68-1.07-.67-.41-1.77-.41-.66 0-1.19.14-.54.14-.97.33-.43.18-.79.32t-.67.14q-.38 0-.61-.21-.22-.2-.46-.58m41.6 25.67.59 2.79q1.07-1.07 2.26-1.98 1.19-.92 2.52-1.56 1.33-.63 2.84-1 1.52-.36 3.32-.36 2.89 0 5.14.98 2.24.99 3.74 2.76 1.5 1.78 2.28 4.25.77 2.46.77 5.43v22.53h-8.52v-22.53q0-3.24-1.48-5.02-1.49-1.78-4.52-1.78-2.21 0-4.14 1.01-1.93 1-3.66 2.72v25.6h-8.52v-35.4h5.21q1.66 0 2.17 1.56m40.06-17.43v19.67q2.07-1.93 4.55-3.14 2.49-1.21 5.83-1.21 2.9 0 5.14.98 2.24.99 3.75 2.76 1.5 1.78 2.27 4.25.78 2.46.78 5.43v22.53h-8.52v-22.53q0-3.24-1.49-5.02-1.48-1.78-4.52-1.78-2.2 0-4.14 1.01-1.93 1-3.65 2.72v25.6h-8.52v-51.27zm51.16 16.08-4.48-.79q.51-3.59 2-6.3 1.48-2.71 3.71-4.52 2.22-1.81 5.1-2.72 2.88-.92 6.19-.92 3.45 0 6.23.98 2.78.99 4.75 2.73 1.96 1.74 3.01 4.09 1.06 2.34 1.06 5.07 0 2.38-.54 4.19-.53 1.81-1.53 3.16-1 1.34-2.49 2.27-1.48.94-3.34 1.56 4.48 1.41 6.69 4.31t2.21 7.28q0 3.73-1.38 6.59t-3.73 4.81-5.43 2.95q-3.09 1-6.54 1-3.76 0-6.56-.86-2.79-.86-4.86-2.55t-3.52-4.14-2.48-5.66l3.76-1.55q1.48-.63 2.77-.33 1.3.29 1.88 1.4.63 1.2 1.37 2.38.74 1.17 1.77 2.08 1.04.92 2.44 1.49 1.39.57 3.33.57 2.17 0 3.79-.71t2.71-1.85 1.62-2.53q.54-1.4.54-2.81 0-1.8-.38-3.26-.38-1.47-1.59-2.51-1.21-1.03-3.47-1.62-2.26-.58-6.05-.58v-6.08q3.14-.03 5.21-.58t3.29-1.54q1.23-.98 1.71-2.36t.48-3.04q0-3.52-1.96-5.34-1.97-1.83-5.25-1.83-1.52 0-2.79.43-1.28.43-2.3 1.21-1.02.77-1.71 1.81-.69 1.03-1.03 2.27-.59 1.59-1.54 2.11-.94.52-2.67.24"/></svg>