<svg xmlns="http://www.w3.org/2000/svg" width="300" height="300" viewBox="0 0 300 300"><rect width="100%" height="100%" fill="#DDDDDD"/><path fill="#999999" d="M76.545 162.985h15.87l-6.07-16.59q-.45-1.11-.93-2.62-.48-1.52-.97-3.28-.45 1.76-.93 3.29-.48 1.54-.93 2.68zm12.66-31.05 19.6 49.89h-7.18q-1.2 0-1.96-.6-.76-.61-1.14-1.5l-3.73-10.18h-20.66l-3.73 10.18q-.27.79-1.07 1.44-.79.66-1.96.66h-7.25l19.63-49.89zm-10.79-9.62-1.59-2.25q1.1-.82 3.12-1.36 2.02-.53 4.26-.53 3.56 0 5.44 1.31t1.88 3.38q0 .93-.37 1.66-.36.72-.98 1.29t-1.47.97q-.84.39-1.81.67l-.58 1.79h-4.07v-3.83q1.79-.24 2.55-.7.76-.47.76-1.06 0-.65-.68-1.07-.67-.41-1.77-.41-.66 0-1.19.14-.54.14-.97.33-.43.18-.79.32t-.67.14q-.38 0-.61-.21-.22-.2-.46-.58m41.6 25.67.59 2.79q1.07-1.07 2.26-1.98 1.19-.92 2.52-1.56 1.33-.63 2.84-1 1.52-.36 3.32-.36 2.89 0 5.14.98 2.24.99 3.74 2.76 1.5 1.78 2.28 4.25.77 2.46.77 5.43v22.53h-8.52v-22.53q0-3.24-1.48-5.02-1.49-1.78-4.52-1.78-2.21 0-4.14 1.01-1.93 1-3.66 2.72v25.6h-8.52v-35.4h5.21q1.66 0 2.17 1.56m40.06-17.43v19.67q2.07-1.93 4.55-3.14 2.49-1.21 5.83-1.21 2.9 0 5.14.98 2.24.99 3.75 2.76 1.5 1.78 2.27 4.25.78 2.46.78 5.43v22.53h-8.52v-22.53q0-3.24-1.49-5.02-1.48-1.78-4.52-1.78-2.2 0-4.14 1.01-1.93 1-3.65 2.72v25.6h-8.52v-51.27zm63.99 43.33h12.8q1.38 0 2.2.78.81.78.81 2.05v5.11h-34.23v-2.83q0-.86.36-1.81.37-.95 1.16-1.71l15.15-15.18q1.89-1.93 3.39-3.69t2.5-3.48q1.01-1.73 1.54-3.51.53-1.77.53-3.74 0-1.79-.51-3.16-.52-1.36-1.47-2.29t-2.28-1.4q-1.32-.46-2.98-.46-1.52 0-2.81.43-1.3.43-2.3 1.21-1 .77-1.69 1.81-.69 1.03-1.03 2.27-.59 1.59-1.52 2.11t-2.69.24l-4.49-.79q.52-3.59 2.01-6.3 1.48-2.71 3.7-4.52 2.23-1.81 5.11-2.72 2.88-.92 6.19-.92 3.45 0 6.32 1.02 2.86 1.02 4.9 2.88 2.03 1.86 3.17 4.48 1.14 2.63 1.14 5.83 0 2.76-.81 5.11t-2.18 4.49q-1.36 2.13-3.19 4.14-1.83 2-3.83 4.07l-11.24 11.49q1.62-.49 3.22-.75 1.61-.26 3.05-.26"/></svg>