<svg xmlns="http://www.w3.org/2000/svg" width="75" height="100" viewBox="0 0 75 100"><rect width="100%" height="100%" fill="#DDDDDD"/><path fill="#999999" d="M19.735 51.25q.13 0 .23.11l.64.69q-.53.65-1.3 1t-1.85.35q-.97 0-1.74-.33t-1.32-.92q-.54-.59-.83-1.41-.3-.81-.3-1.78 0-.98.32-1.79.31-.81.88-1.4.56-.59 1.35-.92.78-.32 1.74-.32.95 0 1.68.31.74.31 1.25.82l-.54.75q-.05.07-.12.12-.08.06-.21.06-.09 0-.18-.06-.1-.05-.21-.12-.12-.08-.27-.17t-.35-.16q-.19-.08-.45-.13-.27-.05-.61-.05-.58 0-1.06.21-.49.21-.83.6-.35.39-.54.96-.2.57-.2 1.29 0 .73.21 1.3t.56.96q.36.39.84.6t1.03.21q.33 0 .6-.04.26-.03.49-.11.22-.08.42-.2.2-.13.4-.31.06-.05.13-.08.06-.04.14-.04m4.99.46v-1.04q-.64.03-1.08.11-.43.08-.7.21-.26.13-.38.29-.11.17-.11.37 0 .39.23.56t.6.17q.46 0 .79-.17.34-.16.65-.5m-3.13-3.23-.26-.48q1.06-.97 2.55-.97.54 0 .97.18.43.17.72.49.29.31.45.75.15.44.15.96v3.89h-.67q-.21 0-.33-.06-.11-.07-.18-.26l-.13-.44q-.23.21-.45.37-.23.16-.47.26-.24.11-.51.17t-.6.06q-.39 0-.72-.11-.33-.1-.57-.31t-.37-.53q-.14-.31-.14-.72 0-.24.08-.47t.26-.44q.17-.21.46-.39.28-.19.69-.33t.96-.22q.54-.09 1.24-.11v-.36q0-.62-.26-.91-.26-.3-.76-.3-.36 0-.6.08-.24.09-.42.19-.18.11-.32.19-.15.09-.33.09-.16 0-.26-.08-.11-.09-.18-.19m8.02 4.92q-.8 0-1.23-.46-.43-.45-.43-1.25v-3.44h-.63q-.12 0-.2-.07-.09-.08-.09-.24v-.59l.99-.16.32-1.68q.03-.12.11-.18.08-.07.22-.07h.76v1.94h1.65v1.05h-1.65v3.34q0 .29.15.45.14.16.38.16.14 0 .23-.03.1-.03.17-.07.06-.04.12-.07.05-.03.11-.03t.1.03q.05.03.09.1l.45.72q-.33.27-.75.41t-.87.14m3.59-3.89h2.79q0-.28-.08-.54-.08-.25-.24-.45-.16-.19-.41-.3t-.58-.11q-.64 0-1.01.37-.37.36-.47 1.03m3.78.9h-3.81q.03.47.16.82.14.34.35.57.22.22.52.33.29.11.65.11t.62-.08.46-.19l.34-.18q.15-.09.29-.09.18 0 .27.14l.43.54q-.25.29-.55.49-.31.19-.64.31-.34.11-.68.16-.35.05-.67.05-.64 0-1.19-.21-.56-.22-.96-.63-.41-.42-.65-1.04-.23-.61-.23-1.42 0-.63.2-1.19.21-.55.59-.96t.93-.65 1.24-.24q.58 0 1.07.18.49.19.85.55.35.35.55.87t.2 1.19q0 .33-.07.45t-.27.12m3.7-.34q.28 0 .48-.07.21-.08.34-.21.14-.13.21-.32.07-.18.07-.41 0-.45-.28-.72-.27-.27-.82-.27-.54 0-.81.27-.28.27-.28.72 0 .22.07.41.07.18.21.32.13.13.34.21.2.07.47.07m1.68 3.51q0-.18-.11-.3-.11-.11-.29-.18-.19-.06-.44-.09t-.53-.04q-.28-.02-.57-.03-.3-.01-.58-.05-.25.14-.4.33-.15.18-.15.43 0 .16.08.3t.26.24q.17.11.45.16.29.06.69.06.42 0 .72-.06.3-.07.49-.18.2-.11.29-.26t.09-.33m-.3-6.23h1.77v.56q0 .26-.31.32l-.56.1q.13.32.13.7 0 .45-.18.82-.19.37-.51.63t-.76.4q-.45.14-.96.14-.18 0-.34-.02-.17-.02-.33-.05-.29.18-.29.39 0 .19.17.28.17.08.45.12t.64.04q.36.01.74.04t.74.11q.36.07.64.24.28.16.46.44.17.28.17.71 0 .41-.2.8-.21.38-.59.68t-.93.48q-.56.19-1.27.19-.69 0-1.21-.14-.51-.13-.86-.36-.34-.22-.51-.52-.16-.29-.16-.61 0-.43.26-.72t.71-.47q-.24-.12-.39-.33-.14-.21-.14-.56 0-.13.05-.28t.15-.29q.1-.15.25-.28.15-.12.35-.23-.46-.25-.73-.67t-.27-.98q0-.46.19-.83.18-.37.51-.63.32-.26.77-.4.45-.13.97-.13.4 0 .75.08t.63.23m5.43-.3q.69 0 1.25.22t.96.63.61 1q.22.58.22 1.31t-.22 1.32q-.21.59-.61 1-.4.42-.96.64t-1.25.22-1.25-.22-.96-.64q-.4-.41-.62-1t-.22-1.32.22-1.31q.22-.59.62-1t.96-.63 1.25-.22m0 5.2q.77 0 1.14-.52.37-.51.37-1.51 0-.99-.37-1.52-.37-.52-1.14-.52-.78 0-1.15.53-.38.52-.38 1.51t.38 1.51q.37.52 1.15.52m5.48-4.73.09.69q.29-.55.69-.87.39-.31.93-.31.43 0 .69.19l-.1 1.11q-.03.1-.09.15-.05.04-.15.04-.09 0-.27-.03-.17-.03-.34-.03-.25 0-.44.08-.19.07-.34.2-.16.14-.27.33-.12.19-.22.44v3.79h-1.49v-6.16h.87q.23 0 .32.08.09.09.12.3m7.57-.38h1.19l-3.35 7.85q-.07.16-.17.24-.11.08-.32.08h-1.11l1.15-2.47-2.49-5.7h1.31q.17 0 .27.09.1.08.15.19l1.3 3.19q.07.16.12.33.04.16.08.33.06-.17.11-.34.05-.16.12-.32l1.24-3.19q.04-.12.16-.2.11-.08.24-.08"/></svg>